<svg width="200" height="42" viewBox="0 0 281 59" fill="none" xmlns="http://www.w3.org/2000/svg">
<path d="M25.9866 0.101867C26.0661 0.127334 26.1192 0.1528 26.1987 0.178267C26.4639 0.2292 26.7291 0.331067 26.9942 0.458401C27.2594 0.585734 27.5511 0.764001 27.7897 0.942268C28.2671 1.2988 28.6648 1.73174 28.9565 2.2156C29.2217 2.674 29.3808 3.18334 29.3542 3.69267C29.3542 3.84547 29.3542 3.99827 29.3542 4.15107C29.3542 4.40574 29.3012 4.66041 29.2482 4.88961C29.1686 5.19521 29.0626 5.47534 28.9035 5.75548C28.6648 6.18841 28.3466 6.54494 27.9223 6.82508C27.6041 7.05428 27.2064 7.20708 26.8086 7.25801C26.4904 7.30895 26.1722 7.33441 25.854 7.33441C25.4563 7.33441 25.085 7.25801 24.7403 7.05428C24.5282 6.95241 24.3425 6.82508 24.1569 6.69774C24.1569 6.69774 24.1304 6.69774 24.1304 6.67228C23.9713 6.44308 23.7327 6.26481 23.5736 6.01014C23.4145 5.75548 23.3084 5.47534 23.2288 5.16974V5.14428C23.2023 4.71134 23.1493 4.30387 23.2288 3.87094C23.3349 3.43801 23.547 3.03054 23.8918 2.72494C24.1569 2.47027 24.5016 2.26654 24.8729 2.16467C25.3502 2.03734 25.854 2.11374 26.2783 2.34294C26.5169 2.47027 26.7291 2.62307 26.9147 2.80134C27.1533 3.03054 27.3124 3.31067 27.392 3.61627C27.4981 4.17654 27.3655 4.73681 27.0473 5.19521C26.9677 5.29708 26.7556 5.52628 26.4109 5.65361C26.2518 5.70454 25.9601 5.83188 25.6154 5.73001C25.2972 5.62814 25.1115 5.39894 25.032 5.27161C24.9524 5.14428 24.7668 4.88961 24.7668 4.53307C24.7668 4.15107 25.0055 3.71814 25.4032 3.59081C25.6154 3.53987 25.8275 3.59081 25.9601 3.74361C26.1457 3.94734 26.0131 4.32934 25.801 4.45667C25.7214 4.50761 25.6684 4.48214 25.5888 4.43121C25.5358 4.38027 25.5623 4.32934 25.5888 4.32934C25.6154 4.32934 25.6419 4.32934 25.6684 4.30387C25.7214 4.27841 25.801 4.27841 25.801 4.17654C25.801 4.10014 25.7479 3.99827 25.6684 3.97281C25.6419 3.94734 25.6154 3.94734 25.5888 3.97281C25.3502 4.12561 25.1911 4.32934 25.2441 4.58401C25.2706 4.68587 25.2972 4.76227 25.3237 4.86414C25.4297 5.19521 25.6154 5.27161 25.9336 5.29707C26.2783 5.32254 26.623 5.14427 26.7821 4.83867C27.0738 4.35481 26.9942 3.87094 26.7821 3.41254C26.7026 3.25974 26.57 3.10694 26.4109 3.00507C26.1987 2.8268 25.9336 2.69947 25.6684 2.64854C25.4563 2.62307 25.2176 2.62307 25.0055 2.69947C24.263 2.9032 23.8387 3.38707 23.7061 4.10014C23.6796 4.27841 23.6796 4.43121 23.7061 4.60947C23.7327 4.96601 23.8387 5.34801 24.0243 5.65361C24.4751 6.31574 25.1115 6.69774 25.9336 6.74868C26.1192 6.74868 26.3048 6.72321 26.4904 6.67228C26.8882 6.57041 27.2329 6.34121 27.4981 6.03561C27.9223 5.57721 28.1875 4.99147 28.2405 4.38027C28.2671 4.04921 28.2405 3.71814 28.161 3.41254C28.0814 3.10694 27.9754 2.8268 27.8163 2.54667C27.6837 2.26654 27.4715 2.03734 27.2329 1.85907L27.1533 1.80814C26.676 1.42614 26.0927 1.19694 25.4563 1.17147C24.8199 1.12054 24.21 1.24787 23.6796 1.57894C23.3084 1.80814 22.9902 2.11374 22.778 2.47027C22.5129 2.9032 22.3803 3.41254 22.3803 3.92187C22.3803 4.17654 22.3803 4.45667 22.3803 4.71134C22.4068 5.37348 22.5129 6.03561 22.725 6.67228C22.8311 7.05428 23.0432 7.41081 23.2288 7.79281C23.5205 8.40401 23.8652 8.96428 24.21 9.55002C24.5812 10.1612 25.032 10.696 25.5358 11.1799C25.6684 11.3327 25.8275 11.46 25.9866 11.5619C26.0396 11.6128 26.0927 11.6383 26.1722 11.6638C26.1987 11.6892 26.2518 11.6638 26.2783 11.6383C26.2783 11.6383 26.2783 11.6383 26.2783 11.6128C26.3048 11.5364 26.3313 11.46 26.3578 11.3582C26.4109 11.078 26.4904 10.7979 26.623 10.5177C26.7821 10.1103 26.9942 9.75375 27.2329 9.39722C27.7102 8.81148 28.3201 8.35308 29.036 8.07295C29.6194 7.86921 30.2558 7.79281 30.8922 7.86921C31.1839 7.89468 31.4756 7.99655 31.7408 8.14935C32.2446 8.40401 32.6689 8.81148 32.9075 9.29535C33.0931 9.70282 33.1462 10.1612 33.0666 10.6196C33.0136 10.9252 32.9075 11.2308 32.7749 11.511C32.5893 11.893 32.2976 12.224 31.9529 12.4787C31.6877 12.6824 31.3695 12.8352 31.0248 12.9116C30.8127 12.9371 30.574 12.9626 30.3619 12.9626C30.0172 12.988 29.699 12.8862 29.3808 12.7843C29.3012 12.7588 29.1951 12.7079 29.1421 12.6315C28.9035 12.4532 28.7178 12.224 28.5587 11.9439C28.3731 11.6128 28.3466 11.2054 28.4792 10.8488C28.6118 10.4923 28.8239 10.1867 29.1421 9.95748C29.3808 9.77922 29.6725 9.65188 29.9907 9.60095C30.3619 9.52455 30.7596 9.62642 31.0248 9.88108C31.1309 9.98295 31.2369 10.1103 31.29 10.2631C31.4226 10.6451 31.3695 11.0526 31.1309 11.3836C30.8657 11.7147 30.3884 11.842 29.9907 11.6638C29.9111 11.6383 29.8581 11.5874 29.7785 11.5619C29.699 11.511 29.6459 11.46 29.6194 11.3582C29.6194 11.3327 29.5929 11.2818 29.5929 11.2563C29.5399 11.1799 29.5399 11.078 29.5664 10.9762C29.5929 10.8488 29.6724 10.747 29.805 10.6706C29.8581 10.6451 29.9111 10.5942 29.9907 10.5687C30.0702 10.5432 30.1763 10.4668 30.2293 10.5432C30.2823 10.5942 30.1763 10.6706 30.1498 10.747C30.1232 10.7979 30.0967 10.8234 30.0702 10.8743C29.9907 11.0271 30.0172 11.1035 30.1763 11.2054C30.4149 11.3582 30.7331 11.3327 30.9187 11.1035C30.9718 11.0271 31.0248 10.9252 31.0248 10.8488C31.0248 10.7724 31.0248 10.7215 31.0248 10.6451C31.0248 10.3904 30.9187 10.2376 30.6536 10.1612C30.4945 10.1103 30.3354 10.0848 30.2028 10.1357C30.0437 10.1612 29.8846 10.2122 29.7255 10.2886C29.3542 10.4414 29.0626 10.747 28.9565 11.129C28.8504 11.511 29.0095 11.9439 29.3808 12.1476C29.6724 12.3259 29.9907 12.4278 30.3089 12.4532C30.5475 12.4787 30.7862 12.5042 31.0513 12.4532C31.4756 12.3768 31.8734 12.1476 32.0855 11.7911C32.112 11.7402 32.165 11.6892 32.1916 11.6128C32.5628 11.078 32.5893 10.5178 32.4037 9.90655C32.3507 9.75375 32.2711 9.60095 32.1385 9.47362C31.7673 9.06615 31.2369 8.83695 30.6536 8.83695C30.0437 8.83695 29.4338 8.98975 28.93 9.32081C28.1875 9.75375 27.7102 10.4923 27.6041 11.3327C27.5776 11.511 27.5511 11.6892 27.5511 11.8675C27.5511 12.3259 27.6572 12.8098 27.8428 13.2427C28.1345 13.9558 28.5587 14.5924 29.0095 15.2291C29.5664 16.0186 30.1498 16.7826 30.6536 17.5975C30.9187 18.0559 31.1839 18.5398 31.4226 19.0236C31.6082 19.4056 31.7143 19.8131 31.7938 20.246C31.8203 20.4752 31.8734 20.679 31.8999 20.9082C32.0059 22.0796 31.8203 23.2766 31.396 24.3716C31.2635 24.7282 31.1044 25.1102 30.9187 25.4667C30.6271 26.0524 30.2823 26.6127 29.8846 27.1475C29.5929 27.555 29.3012 27.9624 29.036 28.3954C28.8769 28.65 28.7444 28.9556 28.6383 29.2358C28.6118 29.2867 28.6118 29.3631 28.6383 29.414C28.6648 29.4395 28.7444 29.414 28.8239 29.3376C29.2482 28.9047 29.699 28.4972 30.1232 28.0898C30.5475 27.6823 30.9983 27.2748 31.3695 26.791C31.5552 26.5363 31.7938 26.3071 31.9794 26.0779C32.7219 25.2375 33.2257 24.1934 33.4644 23.0983C33.597 22.5126 33.65 21.9014 33.7295 21.3156C33.8091 20.5516 33.8091 19.7876 33.8621 19.0491C33.9152 18.1068 33.9417 17.1646 33.9682 16.1968C33.9947 15.662 34.0477 15.1018 34.0743 14.567C34.0743 14.4142 34.1008 14.2614 34.1008 14.1086C34.1273 13.752 34.1538 13.3955 34.2068 13.039C34.3129 12.4787 34.4985 11.9439 34.7637 11.4346C34.8698 11.2308 35.0024 11.0271 35.0819 10.7979C35.3206 10.2886 35.6653 9.83015 35.9304 9.34628C36.3017 8.73508 36.5934 8.09841 36.8055 7.41081C36.9381 6.95241 37.0176 6.49401 36.9911 6.01014C36.9646 5.01694 36.2487 4.17654 35.2675 3.94734C34.9493 3.89641 34.6311 3.89641 34.3394 3.94734C33.8356 4.02374 33.3583 4.20201 32.934 4.48214C32.4302 4.83867 32.112 5.29708 32.059 5.88281C32.0325 6.36668 32.1916 6.87601 32.5363 7.23254C32.7749 7.51268 33.0931 7.69095 33.4644 7.79281C33.9152 7.89468 34.419 7.84375 34.8433 7.66548C35.0289 7.58908 35.2145 7.51268 35.3736 7.41081C35.9304 7.00334 36.0895 6.34121 35.7448 5.73001C35.6653 5.60268 35.5857 5.47534 35.4797 5.37348C35.188 5.04241 34.6046 4.94054 34.1803 5.14428C33.9682 5.24614 33.7826 5.32254 33.65 5.52628C33.5704 5.65361 33.5174 5.80641 33.5174 5.95921C33.5439 6.34121 33.8356 6.64681 34.2334 6.69774C34.3925 6.72321 34.5516 6.67228 34.6576 6.57041C34.6842 6.54494 34.7107 6.51948 34.7107 6.46854C34.7372 6.41761 34.7372 6.34121 34.7372 6.26481C34.7372 6.03561 34.7372 5.93374 34.4455 5.90828C34.419 5.90828 34.419 5.90828 34.3925 5.90828C34.3659 5.90828 34.3394 5.88281 34.3394 5.85734C34.3394 5.83188 34.3394 5.80641 34.3659 5.78094C34.4455 5.70454 34.5781 5.67908 34.6842 5.70454C34.8167 5.73001 34.9228 5.83188 35.0024 5.93374C35.241 6.29028 35.188 6.72321 34.7637 6.95241C34.3394 7.18161 33.9152 7.15614 33.5174 6.92694C33.4113 6.87601 33.3053 6.79961 33.2257 6.69774C33.0136 6.46854 32.934 6.13748 33.0401 5.83188C33.1727 5.29708 33.5439 4.94054 34.0212 4.68587C34.3129 4.53307 34.6311 4.50761 34.9228 4.63494C35.4001 4.81321 35.8244 5.06787 36.0895 5.50081C36.2752 5.80641 36.3547 6.16294 36.2752 6.49401C36.1426 7.18161 35.6918 7.76735 35.0554 8.09841C34.7902 8.25121 34.472 8.32761 34.1538 8.32761C33.7295 8.32761 33.3053 8.25121 32.934 8.07295C32.4302 7.86921 32.0059 7.48721 31.7408 7.02881C31.5286 6.67228 31.4491 6.26481 31.5286 5.85734C31.6347 5.24614 31.9264 4.68587 32.3772 4.25294C32.6954 3.92187 33.0666 3.66721 33.4909 3.48894C33.7826 3.38707 34.0743 3.31067 34.3659 3.28521C34.6311 3.25974 34.8963 3.23427 35.1615 3.23427C35.8509 3.18334 36.4343 3.41254 36.9911 3.79454C37.548 4.20201 37.9723 4.76227 38.1844 5.42441C38.2109 5.44988 38.2109 5.50081 38.2109 5.52628C38.2374 5.88281 38.2905 6.21388 38.2639 6.57041C38.1844 7.23254 37.9988 7.89468 37.7336 8.50588C37.6806 8.63321 37.6275 8.78601 37.5745 8.93881C37.4419 9.24441 37.3093 9.55001 37.1502 9.83015C37.1237 9.88108 37.1237 9.90655 37.0972 9.95748C37.0707 10.0084 37.1237 10.0339 37.1502 10.0339C37.2298 10.0084 37.3093 9.98295 37.3889 9.95748C37.6806 9.85562 37.9457 9.72828 38.2374 9.62642C38.6087 9.47361 38.9799 9.39721 39.3776 9.37175C39.9875 9.29535 40.5974 9.32081 41.1808 9.42268C41.3929 9.47362 41.6051 9.52455 41.8172 9.60095C42.4536 9.77922 43.037 10.1357 43.5143 10.5941C43.7529 10.8234 43.9386 11.078 44.0977 11.3582C44.2568 11.6638 44.3893 11.9948 44.4689 12.3259C44.575 12.8352 44.4954 13.37 44.2833 13.8539C43.9651 14.567 43.4347 15.1782 42.7453 15.5856C42.3741 15.8148 42.0028 15.9931 41.5786 16.1204C41.3664 16.1968 41.1278 16.2478 40.8891 16.2478C40.5709 16.2987 40.2262 16.2987 39.8815 16.2478C39.139 16.1459 38.4496 15.8148 37.9192 15.28C37.5745 14.949 37.3624 14.516 37.3093 14.0576C37.2828 13.9048 37.3093 13.7266 37.3624 13.5738C37.4684 13.0899 37.7866 12.657 38.2109 12.4023C38.6882 12.0712 39.2451 11.842 39.8284 11.7402C40.2792 11.6383 40.73 11.7402 41.1012 11.9948C41.4195 12.224 41.6316 12.5551 41.6846 12.9371C41.7111 13.0644 41.7111 13.2172 41.6846 13.3446C41.6051 13.7775 41.3134 14.1595 40.8626 14.3123C40.6239 14.4142 40.3853 14.4906 40.1201 14.4906C39.7224 14.4906 39.4307 14.3123 39.2185 14.0067C39.1655 13.9303 39.1125 13.8284 39.0594 13.7266C38.9269 13.3955 39.086 13.039 39.4307 12.9371C39.5102 12.9116 39.5898 12.8862 39.6693 12.8607C39.8019 12.8352 39.9345 12.8352 40.0406 12.8862C40.0936 12.9116 40.1466 12.9371 40.1732 12.988C40.1997 13.0899 40.2262 13.2172 40.2527 13.3191C40.2527 13.3955 40.1997 13.4464 40.1201 13.4719C40.0936 13.4719 40.0936 13.4719 40.0671 13.4719C40.0141 13.4464 39.9345 13.421 39.8815 13.3955C39.8284 13.37 39.7489 13.3446 39.6959 13.3191C39.5898 13.2936 39.5102 13.3446 39.5102 13.4464C39.5102 13.5228 39.5102 13.6247 39.5367 13.7011C39.5633 13.7775 39.6163 13.8284 39.6959 13.8539C40.1466 14.0576 40.5709 13.9558 40.9952 13.752C41.2338 13.6502 41.3399 13.3955 41.2869 13.1663C41.1808 12.657 40.8096 12.3514 40.3323 12.1986C40.0936 12.1222 39.8284 12.1222 39.5898 12.1731C39.086 12.275 38.6617 12.5806 38.3965 12.988C38.1048 13.37 38.1048 13.9048 38.37 14.2868C38.6617 14.7962 39.192 15.1272 39.7754 15.2036C40.7035 15.3564 41.5255 15.1018 42.2415 14.5415C42.6127 14.2614 42.9044 13.9048 43.1431 13.4974C43.1961 13.3955 43.2491 13.2936 43.2756 13.1918C43.3552 12.8607 43.3817 12.5551 43.3022 12.224C43.2226 11.9184 43.0635 11.6128 42.8249 11.3836C42.5332 11.1035 42.1619 10.8743 41.7642 10.747C41.0747 10.5178 40.3057 10.4668 39.5898 10.5941C39.139 10.6705 38.7147 10.7979 38.2905 10.9507C37.9457 11.1035 37.6275 11.2818 37.3358 11.511C36.8585 11.893 36.4343 12.3514 36.1426 12.8862C35.9835 13.1154 35.8244 13.37 35.7713 13.6502C35.4531 14.3887 35.4266 15.1527 35.5062 15.9422C35.5592 16.3496 35.6388 16.7571 35.7183 17.1646C35.7713 17.5466 35.8509 17.9031 35.8774 18.2851C35.8774 18.3615 35.9304 18.387 35.9835 18.3615C36.0895 18.336 36.1956 18.2596 36.2752 18.1832C36.4078 18.0814 36.5403 17.954 36.6729 17.8522C36.9911 17.5466 37.4154 17.3428 37.8662 17.3174C38.3965 17.2664 38.9003 17.3174 39.4042 17.4702C39.8284 17.5975 40.1997 17.8267 40.5179 18.1068C40.783 18.3615 40.9687 18.6671 41.0747 18.9982C41.1543 19.2528 41.2073 19.533 41.2338 19.7876C41.2338 20.0168 41.2073 20.246 41.1012 20.4498C40.9156 20.9846 40.5179 21.443 40.0141 21.7231C39.6693 21.9268 39.2716 22.0796 38.8738 22.156C38.6087 22.207 38.317 22.1815 38.0518 22.1306C37.6275 22.0287 37.2828 21.7231 37.1237 21.3411C36.9646 20.9846 36.9116 20.6026 36.9646 20.2206C36.9646 20.1696 36.9911 20.1187 36.9911 20.0932C37.2033 19.5839 37.548 19.1764 38.0783 18.9982C38.37 18.8708 38.6882 18.8708 39.0064 18.9472C39.3246 19.0236 39.5633 19.2783 39.6163 19.6094C39.6693 19.8895 39.6163 20.1696 39.4307 20.3988C39.192 20.7299 38.7147 20.8063 38.3965 20.5771C38.37 20.5516 38.317 20.5262 38.2905 20.4752C38.1314 20.297 38.1314 20.0168 38.2905 19.8386C38.317 19.8131 38.37 19.8131 38.3965 19.8386C38.3965 19.8386 38.3965 19.8386 38.3965 19.864C38.3965 19.8895 38.3965 19.8895 38.3965 19.915C38.4761 20.1951 38.6882 20.3224 38.9799 20.246C39.0594 20.2206 39.139 20.1442 39.139 20.0678C39.192 19.8895 39.1125 19.7112 38.9799 19.5839C38.7943 19.4311 38.5556 19.3547 38.317 19.4056C38.0783 19.4311 37.8662 19.533 37.6806 19.6858C37.601 19.7622 37.5215 19.864 37.4684 19.9914C37.3624 20.297 37.3624 20.6026 37.4949 20.9082C37.5745 21.0864 37.7071 21.2392 37.8927 21.2902C38.423 21.4684 39.0064 21.443 39.5367 21.2647C39.855 21.1628 40.0671 20.9082 40.1997 20.6026C40.6505 19.6858 40.0936 18.6162 39.0594 18.387C38.4761 18.2596 37.8397 18.2851 37.2828 18.5143C37.0972 18.5652 36.9116 18.6416 36.7525 18.7435C36.4343 18.9727 36.1691 19.2783 36.0365 19.6348C35.9304 19.8895 35.8774 20.1442 35.8244 20.3988C35.7183 21.0864 35.5857 21.774 35.4531 22.4616C35.294 23.2002 35.0554 23.8878 34.7372 24.5754C34.7372 24.6008 34.7107 24.6008 34.7107 24.6263C34.7107 24.6518 34.7372 24.6772 34.7637 24.7027H34.7902C34.9228 24.6772 35.0819 24.6263 35.2145 24.5754C35.5327 24.4226 35.8774 24.2952 36.2221 24.1679C36.6199 24.0406 37.0176 23.9387 37.4154 23.8623C37.8662 23.7859 38.317 23.735 38.7412 23.7095C39.192 23.684 39.6163 23.7095 40.0671 23.6586C40.0936 23.6586 40.1201 23.6586 40.1466 23.6586C40.7035 23.735 41.2604 23.6586 41.8172 23.684C41.9233 23.684 42.0559 23.684 42.1619 23.7095C42.6657 23.7604 43.1696 23.735 43.6469 23.684C44.0446 23.6331 44.4159 23.5822 44.8136 23.5312C45.6356 23.4294 46.4577 23.1747 47.2267 22.8436C47.81 22.5635 48.2873 22.156 48.6586 21.6467C48.8972 21.3156 49.0828 20.9336 49.1624 20.5516C49.295 19.8895 49.1624 19.1764 48.8177 18.5907C48.5525 18.1578 48.1813 17.8012 47.704 17.572C47.3858 17.3938 47.0145 17.241 46.6433 17.1391C46.1129 16.9863 45.5296 16.9863 44.9992 17.1391C44.5219 17.2664 44.0711 17.4702 43.6734 17.7758C42.9574 18.336 42.7188 19.0491 42.8514 19.915C42.9309 20.3734 43.1696 20.7808 43.4878 21.1374C43.6734 21.3156 43.912 21.4684 44.1507 21.5958C44.9197 21.9778 45.6887 22.0287 46.5107 21.7486C46.8819 21.6212 47.2267 21.392 47.4918 21.1119C47.9426 20.6026 47.9957 19.8386 47.6244 19.2783C47.4653 18.9982 47.2001 18.7944 46.8819 18.6671C46.5637 18.5143 46.2455 18.4379 45.9008 18.4124C45.5296 18.387 45.1318 18.4634 44.7871 18.6162C44.5219 18.7435 44.3098 18.9727 44.2037 19.2528C43.9916 19.864 44.4424 20.3479 44.8667 20.5262C45.0788 20.6026 45.3174 20.6535 45.5561 20.6535C45.7682 20.6535 45.9538 20.6026 46.1395 20.5262C46.3781 20.4243 46.4842 20.1696 46.4312 19.9404C46.4046 19.8386 46.3516 19.7622 46.219 19.7622C45.6356 19.7367 45.7152 19.7112 45.6622 20.1951V20.2206C45.6356 20.3479 45.5826 20.3988 45.45 20.3224C45.344 20.246 45.2379 20.1442 45.1849 20.0168C45.1583 19.9659 45.1583 19.915 45.1583 19.8895C45.1849 19.7622 45.2114 19.6603 45.2644 19.533C45.2909 19.5075 45.3174 19.482 45.344 19.4566C45.7152 19.1764 46.1395 19.1255 46.5372 19.3802C46.7494 19.533 46.8819 19.7876 46.8289 20.0423C46.8024 20.297 46.6963 20.5262 46.5107 20.7044C45.9538 21.2902 44.9462 21.3156 44.3893 20.8827C44.1507 20.7044 43.9651 20.5007 43.806 20.246C43.4878 19.6858 43.5673 18.9982 44.0181 18.5398C44.3363 18.2342 44.7341 18.0304 45.1849 17.9795C45.5031 17.9286 45.8478 17.9286 46.166 17.9795C46.6963 18.0559 47.2001 18.3106 47.5449 18.718C48.1282 19.4566 48.2343 20.297 47.7835 21.1119C47.704 21.2647 47.5714 21.4175 47.4388 21.5448C46.7494 22.1815 45.9273 22.4871 44.9462 22.3852C44.8667 22.3852 44.7606 22.3598 44.681 22.3343C44.0446 22.1306 43.4347 21.825 42.9839 21.3156C42.6392 20.9336 42.4006 20.4498 42.3475 19.9659C42.215 19.151 42.4271 18.336 42.9309 17.6739C43.1961 17.3428 43.5143 17.0627 43.912 16.8844C44.1242 16.7826 44.3363 16.7062 44.5485 16.6043C44.8136 16.5024 45.0788 16.426 45.344 16.3751C45.5296 16.3496 45.6887 16.3496 45.8743 16.3496C46.4046 16.3242 46.935 16.4006 47.4388 16.5279C48.0752 16.7062 48.6586 16.9863 49.1889 17.3683C49.9049 17.8522 50.3557 18.6162 50.4617 19.4566C50.4882 19.6348 50.5148 19.7876 50.5148 19.9659C50.5413 20.6535 50.3557 21.3666 49.9579 21.9523C49.4276 22.8182 48.6586 23.5058 47.7305 23.9642C46.8554 24.3971 45.9008 24.6772 44.9462 24.7791C44.0181 24.881 43.1165 24.9319 42.1884 24.9574C41.552 24.9828 40.9421 25.0338 40.3057 25.0847C39.8019 25.1102 39.2981 25.212 38.7943 25.263C38.37 25.2884 37.9457 25.3648 37.5215 25.4412C36.6729 25.6195 35.8509 25.8742 35.0289 26.2052C34.6046 26.3835 34.2068 26.5872 33.8356 26.8164C33.0136 27.2748 32.2711 27.8096 31.5552 28.4208C31.3961 28.5736 31.2369 28.7519 31.0778 28.9047C31.0513 28.9302 31.0513 28.9556 31.0513 28.9811C31.0778 29.0066 31.1309 29.032 31.1574 29.0066C31.29 28.9556 31.4226 28.8792 31.5552 28.8283C32.0325 28.5736 32.5098 28.3699 33.0401 28.2171C33.4909 28.0898 33.9682 28.0134 34.419 28.0388C35.0554 28.0388 35.6653 28.1916 36.2221 28.4972C36.6729 28.7264 36.8851 29.1084 36.9911 29.5923C37.0176 29.7706 37.0176 29.9234 36.9911 30.1016C36.9116 30.6619 36.6199 31.1712 36.1956 31.5787C35.5592 32.139 34.8167 32.4446 33.9417 32.3427C33.3318 32.2918 32.8014 31.9353 32.5098 31.4259C32.3241 31.0694 32.2976 30.6619 32.4567 30.2799C32.5628 29.9998 32.7749 29.7196 33.0136 29.5414C33.0401 29.5159 33.0666 29.4904 33.0931 29.465C33.1197 29.4395 33.1197 29.414 33.1462 29.3886C33.1197 29.3886 33.0931 29.3631 33.0666 29.3886C32.7219 29.4904 32.4302 29.6432 32.112 29.8215C31.5552 30.178 31.0248 30.5855 30.574 31.0439C30.5475 31.0949 30.4945 31.1203 30.4414 31.1713C29.8581 31.6297 29.4338 32.2154 29.0095 32.8011C28.6913 33.2595 28.3731 33.7434 28.0549 34.2273C27.8428 34.5329 27.6837 34.8894 27.4981 35.2205C27.445 35.3478 27.392 35.4751 27.3655 35.6025C27.339 35.6279 27.339 35.6789 27.392 35.7043C27.4185 35.7043 27.4715 35.7043 27.4981 35.7043C27.5511 35.6789 27.5776 35.6534 27.6041 35.6279C27.8163 35.4497 28.0284 35.2714 28.2405 35.0677C28.3996 34.9149 28.5853 34.7621 28.7974 34.6347C29.1156 34.431 29.4073 34.2273 29.7255 34.049C30.2558 33.7943 30.8127 33.5651 31.3695 33.3869C31.7408 33.285 32.1385 33.1831 32.5363 33.1067C32.7219 33.0813 32.934 33.0558 33.1197 33.0303C33.8621 32.9539 34.6311 32.9794 35.3736 33.0558C35.9835 33.1322 36.6199 33.2595 37.2298 33.3869C37.7071 33.4887 38.1844 33.6161 38.6882 33.7434C39.4572 33.9217 40.2262 34.0745 41.0217 34.2018C41.6846 34.3037 42.3475 34.3291 43.0105 34.3037C43.6204 34.3037 44.2302 34.1763 44.8136 33.9471C45.2909 33.7434 45.6887 33.4378 46.0334 33.0813C46.5372 32.5465 46.8554 31.8843 46.935 31.1967C47.0676 30.3563 46.8289 29.4904 46.2455 28.8283C45.7152 28.1916 44.9462 27.7842 44.0977 27.6568C43.4878 27.555 42.8779 27.6314 42.321 27.8606C41.7377 28.0898 41.2338 28.4718 40.8891 28.9811C40.6239 29.3631 40.4914 29.8215 40.5179 30.3054C40.5179 30.6364 40.5709 30.942 40.7035 31.2476C41.0217 32.0117 41.6316 32.4446 42.4801 32.5465C43.1431 32.6229 43.8325 32.521 44.4159 32.2409C44.8932 32.0371 45.2379 31.6551 45.397 31.1967C45.5561 30.7638 45.4765 30.2799 45.1849 29.8979C44.8667 29.465 44.4424 29.2358 43.9386 29.1084C43.5673 29.0066 43.1696 29.0066 42.7718 29.1084C42.6392 29.1339 42.5332 29.2103 42.4271 29.2612C42.1884 29.414 42.0824 29.6942 42.1619 29.9488C42.215 30.1526 42.321 30.3563 42.4536 30.5346C42.6127 30.7383 42.9044 30.8656 43.1696 30.8402C43.3817 30.8147 43.5938 30.8147 43.806 30.7128C43.9916 30.6364 44.0711 30.4327 43.9916 30.2544C43.912 30.0762 43.6999 29.9488 43.4878 29.9743C43.3552 29.9998 43.2491 30.0252 43.2756 30.178C43.2756 30.229 43.2226 30.229 43.1961 30.229C43.09 30.229 42.9839 30.1526 42.9839 30.0507V30.0252C43.0105 29.7451 43.09 29.4904 43.4878 29.5159C44.0977 29.5159 44.4689 30.0252 44.3363 30.611C44.2302 31.1203 43.5143 31.6042 42.8779 31.3241C42.5597 31.1967 42.268 30.993 42.0559 30.7383C41.5786 30.1271 41.7111 29.2867 42.3475 28.8283C42.3475 28.8283 42.3741 28.8283 42.3741 28.8028C42.6923 28.5736 43.09 28.4718 43.4878 28.5227C44.3363 28.5736 45.0788 29.032 45.4765 29.7451C45.8213 30.3054 45.8743 30.9675 45.6356 31.5533C45.5031 31.8843 45.2644 32.1645 44.9462 32.3682C44.5219 32.6738 44.0711 32.903 43.5673 33.0049C42.7453 33.1831 41.9763 33.0558 41.3134 32.5719C40.5444 32.0117 40.1732 31.2476 40.1466 30.3308C40.1466 29.6687 40.3588 29.0066 40.7565 28.4463C41.0747 28.0134 41.4725 27.6314 41.9498 27.3258C42.1884 27.173 42.4801 27.0711 42.7453 26.9947C43.5408 26.74 44.3628 26.7146 45.1849 26.8928C45.7682 27.0202 46.3251 27.2748 46.8289 27.6314C47.0941 27.8606 47.3327 28.1152 47.5449 28.3954C47.6509 28.5482 47.757 28.701 47.8896 28.8538C47.9161 28.9047 47.9691 28.9556 48.0222 29.0066C48.1282 29.1339 48.2078 29.1084 48.2608 28.9556C48.3404 28.6755 48.4199 28.4208 48.4995 28.1407C48.6586 27.6059 48.9503 27.0966 49.295 26.6382C49.401 26.4854 49.5336 26.358 49.6927 26.2562C49.9844 26.027 50.3026 25.7978 50.6473 25.594C50.9921 25.3903 51.3633 25.263 51.7611 25.1611C51.8671 25.1356 51.9732 25.1102 52.0793 25.1102C52.7687 25.0592 53.4581 25.1611 54.0945 25.4158C54.7044 25.645 55.2348 26.0015 55.659 26.4599C55.8712 26.6891 56.0568 26.9692 56.1894 27.2748C56.4546 27.886 56.3485 28.4718 56.0038 29.032C55.8181 29.3122 55.606 29.5414 55.3408 29.7451C55.1022 29.9488 54.837 30.1016 54.5453 30.2035C53.8824 30.4836 53.1399 30.4836 52.5035 30.2035C52.1323 30.0507 51.8141 29.847 51.5489 29.5668C51.3633 29.3886 51.2572 29.1848 51.2307 28.9556C51.1512 28.6246 51.1777 28.268 51.2572 27.9624C51.3898 27.4786 51.8406 27.1475 52.3709 27.122C52.5566 27.0966 52.7422 27.122 52.9278 27.173C53.3521 27.2494 53.7233 27.4276 54.068 27.6823C54.2536 27.8351 54.3862 28.0134 54.4393 28.2426C54.4923 28.3954 54.4393 28.5736 54.3332 28.701C54.1211 28.9811 53.8029 29.1339 53.4581 29.1339C53.1399 29.1339 52.8483 28.9302 52.7422 28.6246C52.6626 28.4208 52.7157 28.1916 52.9013 28.0388C52.9278 27.9879 53.0074 27.9879 53.0604 27.9879C53.1134 28.0134 53.1665 28.0388 53.1399 28.0898C53.1399 28.1407 53.1134 28.1916 53.1134 28.2171C53.0339 28.4718 53.193 28.7264 53.4581 28.8028C53.5112 28.8283 53.5642 28.8283 53.6172 28.8028C53.6703 28.8028 53.7233 28.8028 53.7763 28.8028C53.9885 28.7774 54.1741 28.5736 54.1476 28.3699C54.1476 28.1407 54.015 27.9115 53.8029 27.7842C53.6438 27.6823 53.4847 27.6059 53.299 27.5804C52.8748 27.504 52.4505 27.555 52.0793 27.7587C51.9467 27.8351 51.8141 27.937 51.7345 28.0643C51.6285 28.2171 51.5754 28.3699 51.5489 28.5482C51.5224 28.7774 51.5754 29.0066 51.7345 29.1848C51.8936 29.3631 52.0793 29.5159 52.2914 29.5923C52.5831 29.7451 52.9278 29.8215 53.246 29.847C53.5642 29.8724 53.8824 29.847 54.1741 29.796C54.4393 29.7451 54.6779 29.6687 54.9166 29.5414C55.4204 29.2612 55.7386 28.7519 55.7121 28.1916C55.7121 27.6314 55.4204 27.122 54.9166 26.8164C54.4923 26.5363 53.9885 26.358 53.4847 26.2816C52.9808 26.2052 52.477 26.2562 51.9997 26.409C51.2838 26.6382 50.7534 27.0711 50.3557 27.6823C50.117 28.0388 49.9314 28.4208 49.7723 28.8283C49.6662 29.1594 49.5336 29.4904 49.4276 29.8215C49.348 30.0252 49.295 30.229 49.2419 30.4327C49.1624 30.7128 49.0828 30.993 49.0033 31.2731C48.9768 31.375 49.0033 31.4259 49.1359 31.4005C49.2685 31.375 49.3745 31.3495 49.5071 31.2986C50.0905 31.1203 50.7269 31.0184 51.3633 31.0694C52.477 31.0948 53.5907 31.2986 54.6249 31.7061C54.9696 31.8589 55.3143 32.0117 55.6325 32.2154C56.2955 32.6229 56.8788 33.1322 57.3296 33.7434C57.7539 34.3291 58.0986 34.9658 58.3373 35.6534C58.4168 35.9081 58.4698 36.1627 58.4698 36.4174C58.4698 36.8758 58.4168 37.3087 58.2577 37.7417C58.0191 38.3529 57.5948 38.8877 57.0379 39.2442C56.6667 39.4989 56.2424 39.7026 55.8181 39.8554C55.4999 39.9573 55.1817 40.0846 54.8635 40.161C54.4923 40.2629 54.0945 40.3138 53.6968 40.3138C53.193 40.3393 52.6892 40.3138 52.1853 40.2119C51.2838 40.0082 50.4882 39.6517 49.8518 38.9895C49.5071 38.633 49.295 38.1746 49.2419 37.6907C49.2154 37.3342 49.2154 36.9522 49.295 36.5957C49.3745 36.2391 49.5602 35.9081 49.7988 35.6279C49.9314 35.4751 50.0905 35.3478 50.2231 35.195C50.3557 35.0677 50.4882 34.9913 50.6473 34.9149C51.0451 34.7366 51.4429 34.6093 51.8671 34.5329C52.2914 34.431 52.7157 34.431 53.1134 34.5329C53.4051 34.6093 53.6968 34.7111 53.962 34.8639C54.3862 35.0931 54.731 35.4497 54.9431 35.8826C55.2083 36.4683 55.1022 37.0286 54.731 37.5379C54.4658 37.8945 54.0945 38.1237 53.6438 38.2001C53.4051 38.251 53.1399 38.2255 52.9278 38.1237C52.3179 37.8435 51.9467 37.4361 51.8671 36.7739C51.8406 36.6211 51.8671 36.4938 51.8936 36.3665C51.9202 36.1627 52.0527 36.0099 52.2384 35.8826C52.2914 35.8571 52.3179 35.8317 52.3709 35.8062C52.7422 35.6025 53.193 35.6789 53.4581 36.0099C53.5907 36.1627 53.6703 36.3665 53.6438 36.5702C53.6438 36.6721 53.5907 36.7739 53.5112 36.8503C53.4316 36.9267 53.3256 37.0031 53.2195 37.0541C53.0604 37.1305 52.9808 37.1305 52.9013 36.9522C52.8748 36.9267 52.8748 36.8758 52.8748 36.8503C52.8483 36.7994 52.8748 36.7485 52.9278 36.723C53.0074 36.6721 53.0869 36.6466 53.1665 36.5957C53.246 36.5702 53.299 36.4683 53.2725 36.3919C53.246 36.2901 53.1399 36.2137 53.0339 36.2137C52.9543 36.2137 52.8748 36.2646 52.7952 36.2391C52.6891 36.1882 52.6626 36.2901 52.5831 36.3155C52.3444 36.3665 52.1853 36.5957 52.2384 36.8249C52.2914 37.2069 52.5831 37.5379 52.9808 37.6398C53.3786 37.7417 53.7763 37.6907 54.1211 37.5125C54.6779 37.2069 54.8901 36.5193 54.5719 35.9845C54.5719 35.959 54.5453 35.9335 54.5453 35.9335C54.2802 35.577 53.9354 35.3223 53.5112 35.195C52.9013 34.9658 52.2118 34.9658 51.5754 35.1441C51.3633 35.195 51.1777 35.2714 51.0186 35.3987C50.4882 35.7553 50.0905 36.1882 49.9314 36.8249C49.8784 37.0795 49.8784 37.3342 49.9314 37.5889C50.064 38.2255 50.5148 38.7603 51.1247 39.0405C51.602 39.2697 52.1058 39.397 52.6361 39.4225C53.4316 39.4734 54.2006 39.397 54.9431 39.1678C55.5795 38.9641 56.1364 38.6839 56.5606 38.1746C56.8788 37.8181 57.1175 37.3851 57.2501 36.9522C57.4357 36.3155 57.3031 35.6025 56.8788 35.0677C56.5606 34.6602 56.1894 34.3037 55.7651 34.0235C55.1552 33.6161 54.5188 33.285 53.8029 33.0558C53.2195 32.8521 52.5831 32.7502 51.9732 32.6993C51.4694 32.6738 50.9655 32.6483 50.4882 32.6738C50.0109 32.6993 49.5602 32.8011 49.1094 32.9539C48.6055 33.1322 48.1813 33.4378 47.81 33.8198C47.6244 34.0235 47.4123 34.2018 47.1736 34.3801C46.8554 34.6347 46.4842 34.8385 46.1129 35.0167C44.9197 35.5515 43.6204 35.8317 42.2945 35.7807C41.7642 35.7553 41.2338 35.7298 40.7035 35.6534C40.0406 35.577 39.3776 35.4242 38.7147 35.3478C38.2639 35.2714 37.8397 35.195 37.3889 35.0931C36.4873 34.9149 35.5857 34.7875 34.6576 34.7366C34.0743 34.7111 33.4909 34.7621 32.934 34.8385C32.2711 34.9403 31.6347 35.1186 31.0248 35.3987C30.574 35.6025 30.1763 35.8571 29.7785 36.1627C29.5399 36.341 29.2747 36.5447 29.036 36.723C28.6648 37.0031 28.3466 37.3087 28.0814 37.6653C27.6572 38.1491 27.339 38.7094 27.0738 39.2951C26.9412 39.6007 26.8351 39.9318 26.7821 40.2629C26.7556 40.3902 26.8351 40.4157 26.9412 40.3902C27.0738 40.3393 27.1799 40.2883 27.3124 40.2119C27.6041 40.0082 27.8693 39.8045 28.161 39.6007C28.6648 39.2697 29.2217 39.0405 29.8316 38.9386C30.8922 38.7858 31.9794 38.8877 32.9871 39.2442C33.4909 39.4225 33.9947 39.6771 34.4455 39.9573C34.7372 40.1355 35.0289 40.3138 35.3206 40.4666C35.8509 40.7213 36.4343 40.8741 37.0442 40.925C37.3624 40.9505 37.6806 40.9505 37.9723 40.9505C38.3965 40.925 38.7943 40.7977 39.1655 40.6194C39.4837 40.4411 39.7754 40.1865 39.9345 39.8554C40.0936 39.5753 40.1997 39.2697 40.2262 38.9386C40.2792 38.5821 40.1732 38.2255 39.9345 37.9454C39.6693 37.6398 39.3776 37.3851 39.0329 37.1814C38.7678 37.0286 38.4761 36.8758 38.1579 36.7739C37.7601 36.6466 37.3093 36.5957 36.8851 36.6466C36.6729 36.6466 36.4873 36.6975 36.3017 36.7994C35.957 37.0031 35.7448 37.2833 35.7183 37.6907C35.6918 38.6075 36.4343 39.3461 37.3889 39.3715C37.3889 39.3715 37.3889 39.3715 37.4154 39.3715C37.6806 39.3715 37.9722 39.3461 38.2109 39.2442C38.5026 39.1423 38.7412 38.9386 38.8208 38.6585C38.9269 38.4038 38.8473 38.0982 38.6087 37.9199C38.423 37.7671 38.1579 37.6653 37.9192 37.6653C37.8131 37.6653 37.6806 37.6653 37.5745 37.6653C37.3889 37.6907 37.2298 37.7417 37.0972 37.869C37.0176 37.9199 37.0176 38.0218 37.0442 38.0982C37.0972 38.251 37.2298 38.3529 37.3889 38.4038C37.5215 38.4293 37.6806 38.4547 37.8131 38.4293C37.9457 38.4038 37.9988 38.3529 37.9457 38.2001C37.9192 38.1237 37.8927 38.0727 37.8662 37.9963C37.8662 37.9709 37.9192 37.9199 37.9457 37.9454C37.9988 37.9454 38.0253 37.9963 38.0518 38.0218C38.2109 38.251 38.1844 38.5566 38.0253 38.7603C37.9722 38.8113 37.9192 38.8622 37.8662 38.9131C37.7336 39.015 37.548 39.0405 37.3889 38.9895C37.0972 38.8877 36.8585 38.6839 36.726 38.4038C36.6464 38.2001 36.6199 37.9709 36.726 37.7671C36.779 37.6653 36.832 37.5379 36.9116 37.4361C36.9116 37.4106 36.9381 37.3851 36.9646 37.3597C37.1502 37.2323 37.3358 37.1559 37.548 37.1305C37.9988 37.0795 38.4761 37.2069 38.8473 37.487C39.2185 37.7671 39.3776 38.1237 39.2716 38.5821C39.1655 39.0659 38.8473 39.4734 38.37 39.6517C37.3093 40.1355 36.0365 39.7026 35.5062 38.6839C35.5062 38.6585 35.4797 38.633 35.4797 38.6075C35.2675 38.1237 35.294 37.6143 35.4797 37.1305C35.6653 36.6211 36.063 36.2137 36.5669 36.0099C36.8851 35.8571 37.2298 35.7807 37.5745 35.7298C37.8927 35.7043 38.2109 35.7298 38.5026 35.8062C39.0594 35.9081 39.6163 36.1373 40.0671 36.4683C40.6505 36.8758 41.0747 37.487 41.2073 38.2001C41.3134 38.7603 41.2604 39.3461 41.0482 39.8809C40.9687 40.0591 40.8626 40.2119 40.73 40.3647C40.4383 40.7213 40.0671 41.0014 39.6693 41.2561C39.192 41.5362 38.6617 41.7145 38.1048 41.7909C37.601 41.8673 37.1237 41.8927 36.6199 41.9182C36.5934 41.9182 36.5403 41.9182 36.5138 41.9437C36.4873 41.9946 36.5138 42.0201 36.5403 42.0455C36.7525 42.3002 36.9911 42.5549 37.2298 42.7841C37.4684 43.0133 37.7336 43.2425 37.9457 43.4971C38.3965 44.0065 38.9534 44.363 39.5633 44.6686C40.1732 44.9742 40.8361 45.2289 41.499 45.4071C42.3475 45.6363 43.2491 45.6363 44.0977 45.3817C44.8401 45.1525 45.5561 44.8214 46.1925 44.3885C46.7494 44.0065 47.2267 43.5226 47.5979 42.9623C47.7305 42.7586 47.8365 42.5294 47.8896 42.3002C47.9957 41.8163 47.8896 41.4089 47.5183 41.0523C47.2532 40.8231 46.9085 40.6449 46.5637 40.5939C45.9538 40.4666 45.344 40.4921 44.7341 40.6194C44.2833 40.7213 43.8855 40.9505 43.5143 41.2306C43.4347 41.2815 43.3817 41.3579 43.3022 41.4343C42.9574 41.7909 42.9044 42.1983 43.0105 42.6567C43.09 42.9369 43.2226 43.217 43.4082 43.4462C43.6999 43.8537 44.1772 44.0829 44.7076 44.0829C45.2114 44.1083 45.7152 43.9555 46.1129 43.6754C46.4046 43.4717 46.5903 43.217 46.6963 42.8859C46.8289 42.5039 46.7228 42.1729 46.5107 41.8673C46.4577 41.7909 46.3516 41.7145 46.2455 41.689C45.9008 41.5871 45.5561 41.5617 45.2114 41.6635C45.1849 41.6635 45.1849 41.689 45.1583 41.689C45.1849 41.689 45.1849 41.7145 45.2114 41.7145H45.2379C45.5031 41.7909 45.6622 41.9182 45.7152 42.1983C45.7682 42.5039 45.7152 42.7841 45.4765 42.9878C45.2644 43.1661 44.9462 43.1915 44.7076 43.0387C44.575 42.9623 44.4424 42.8605 44.3628 42.7331C44.2568 42.5803 44.2302 42.4021 44.2302 42.2238C44.2568 41.5871 44.628 41.2306 45.2114 41.0778C45.4235 41.0269 45.6356 41.0269 45.8478 41.1033C46.0599 41.1542 46.2455 41.2306 46.4312 41.3325C46.8554 41.5871 47.0941 41.9182 47.0941 42.4275C47.0941 42.6058 47.0676 42.7586 47.0676 42.9369C47.041 43.2425 46.8819 43.5481 46.6433 43.7518C46.2721 44.0829 45.8213 44.3375 45.3174 44.4649C45.1583 44.5158 44.9727 44.5413 44.7871 44.5667C44.3628 44.5922 43.9386 44.4649 43.5938 44.2611C43.3552 44.1083 43.1696 43.9046 43.037 43.6499C42.9044 43.4207 42.7983 43.1661 42.7718 42.9114C42.7188 42.4021 42.6923 41.8673 42.9574 41.3834C43.1165 41.0778 43.3552 40.7977 43.6469 40.5939C43.8325 40.4666 43.9916 40.3393 44.1772 40.2374C44.4424 40.0846 44.7606 40.0082 45.0523 39.9573C45.4235 39.8809 45.8213 39.8554 46.219 39.8809C46.7759 39.9318 47.3327 40.1101 47.7835 40.4411C47.9691 40.543 48.1282 40.6703 48.2608 40.8231C48.6851 41.307 48.8707 41.9182 48.8177 42.5549C48.7912 43.0642 48.6586 43.5481 48.3404 43.981C48.3139 44.0065 48.3139 44.0319 48.2873 44.0574C48.2873 44.0829 48.2873 44.1083 48.3139 44.1338H48.3404C48.3934 44.1338 48.4464 44.1338 48.526 44.1083C48.8177 44.0574 49.1094 44.0065 49.4011 43.9046C49.8518 43.7773 50.3291 43.7009 50.8064 43.7009C51.3368 43.7009 51.8671 43.8282 52.3709 44.0574C52.7422 44.2102 53.0604 44.4394 53.3521 44.7195C53.8029 45.1525 54.068 45.7382 54.0945 46.3494C54.1211 46.7059 54.068 47.037 53.9885 47.3935C53.8559 47.8519 53.5907 48.2594 53.193 48.565C53.1399 48.6159 53.0604 48.6414 52.9808 48.6923C52.5831 48.8961 52.1323 49.0234 51.655 49.0489C51.2042 49.0743 50.7534 48.9725 50.3557 48.7687C50.0905 48.6414 49.8518 48.4631 49.6132 48.2594C49.3215 47.9793 49.1624 47.6227 49.1624 47.2153C49.1624 47.0879 49.1624 46.9606 49.1889 46.8333C49.2419 46.3749 49.5071 45.9674 49.9579 45.7637C50.5413 45.4835 51.2572 45.5854 51.708 46.0438C51.8936 46.2221 51.9997 46.4513 51.9997 46.7059C52.0262 46.8842 52.0527 47.0879 51.9997 47.2662C51.9732 47.3935 51.8936 47.5209 51.7876 47.5973C51.5754 47.7755 51.2838 47.8265 51.0186 47.7246C50.833 47.6737 50.7004 47.5209 50.6739 47.3426C50.6473 47.2407 50.6473 47.1134 50.6208 47.0115C50.6208 46.9351 50.6208 46.8587 50.6739 46.7823C50.7004 46.7059 50.7799 46.655 50.8595 46.6805C50.8595 46.6805 50.8595 46.6805 50.886 46.6805C50.939 46.6805 50.9655 46.7314 50.9655 46.7823C50.9655 46.8333 50.939 46.8587 50.9125 46.9097C50.886 47.0625 50.9125 47.1134 51.0451 47.1643C51.1512 47.2153 51.2838 47.2153 51.4163 47.1898C51.5489 47.1389 51.655 47.0115 51.655 46.8587C51.6815 46.655 51.5754 46.4513 51.3898 46.3494C51.1512 46.1966 50.886 46.1202 50.6208 46.1457C50.3822 46.1711 50.1435 46.2221 49.9049 46.3239C49.6662 46.4258 49.5071 46.655 49.5071 46.9351C49.4806 47.6482 50.1435 48.3103 50.8064 48.3867C51.3368 48.4631 51.8671 48.3867 52.3444 48.183C52.9278 47.9538 53.299 47.4445 53.3786 46.8587C53.4316 46.4003 53.2725 45.9419 52.9278 45.6363C52.5566 45.2798 52.0793 45.1015 51.5754 44.9997C50.8064 44.8214 50.0375 44.8978 49.295 45.1015C48.526 45.3053 47.81 45.6363 47.0941 45.9929C46.4842 46.2985 45.9008 46.5786 45.2644 46.8333C44.9197 46.9606 44.5484 47.0879 44.1772 47.1898C44.0181 47.2407 43.8855 47.2662 43.7264 47.2662C43.2491 47.3171 42.7983 47.3171 42.321 47.2917C42.0293 47.2662 41.7642 47.2662 41.4725 47.2153C40.73 47.1134 40.0141 46.9351 39.3246 46.655C39.1655 46.5786 39.0064 46.5022 38.8473 46.4513C37.4684 45.8655 36.2486 44.9997 35.294 43.9301C35.0819 43.7009 34.8698 43.4462 34.6842 43.217C34.3394 42.7841 33.9152 42.4021 33.4644 42.071C32.934 41.689 32.2976 41.4343 31.6082 41.3325C31.29 41.307 30.9453 41.2815 30.6005 41.307C30.521 41.307 30.468 41.3325 30.3884 41.3325C30.3619 41.3325 30.3354 41.3579 30.3089 41.3579C30.3354 41.3834 30.3619 41.3834 30.3884 41.3834C30.6005 41.4598 30.8392 41.5362 31.0513 41.6381C31.7143 41.9691 32.2181 42.5294 32.4832 43.217C32.7749 43.9555 32.5098 44.9233 31.7143 45.4071C31.4756 45.5599 31.2104 45.6873 30.9718 45.7891C30.3089 46.0693 29.699 45.9674 29.1421 45.5854C28.7709 45.3562 28.4792 44.9997 28.3201 44.5922C28.1345 44.1593 28.214 43.7009 28.4792 43.3189C28.6383 43.0642 28.93 42.9623 29.1951 42.8605C29.805 42.6567 30.468 42.8859 30.8127 43.3953C30.9718 43.6245 30.9983 43.9046 30.9187 44.1593C30.8127 44.5667 30.468 44.8723 30.0437 44.9487C29.9907 44.9742 29.9376 44.9742 29.8581 44.9487C29.4338 44.8723 29.1421 44.5158 29.1156 44.1083C29.1156 43.9301 29.1686 43.7773 29.3012 43.6499C29.4338 43.5226 29.6194 43.4462 29.805 43.4717C29.9111 43.4717 29.9907 43.5481 30.0437 43.6245C30.0702 43.7009 30.0967 43.7518 30.1232 43.8282C30.1498 43.9555 30.1232 44.0065 29.9907 43.9555C29.8581 43.9046 29.699 43.9046 29.5664 43.981C29.5133 44.0065 29.5133 44.0574 29.5133 44.1083C29.5399 44.2357 29.6459 44.3375 29.805 44.363C29.9907 44.4139 30.1498 44.3885 30.3354 44.363C30.4945 44.3375 30.6005 44.2102 30.6005 44.0574C30.6005 44.0319 30.6005 44.0065 30.574 43.981C30.4945 43.599 30.1498 43.3189 29.752 43.3189C29.4868 43.3189 29.1951 43.3953 28.9565 43.4971C28.8504 43.5735 28.7444 43.6499 28.6648 43.7773C28.6383 43.8027 28.6383 43.8537 28.6118 43.8791C28.5587 44.2611 28.6383 44.6177 28.9565 44.8723C29.1686 45.0506 29.4338 45.1779 29.7255 45.2034C30.1232 45.2543 30.521 45.2034 30.8922 45.0506C31.343 44.8723 31.5552 44.5413 31.5286 44.1083C31.5286 43.9555 31.5021 43.8027 31.4491 43.6754C31.3165 43.1915 30.9983 42.8859 30.521 42.7077C30.0437 42.5294 29.5399 42.5039 29.036 42.6058C28.6118 42.6822 28.1875 42.835 27.7897 43.0133C27.4185 43.217 27.0738 43.4717 26.7821 43.7773C26.6495 43.9301 26.5169 44.1083 26.3844 44.2611C26.1192 44.6177 25.9601 45.0251 25.907 45.4326C25.8275 45.9165 25.801 46.3749 25.8275 46.8587C25.8805 47.8519 26.0927 48.8197 26.4109 49.7619C26.5965 50.3222 26.8617 50.8825 27.1799 51.4173C27.5776 52.0539 28.0284 52.6142 28.6913 52.9962C29.0891 53.2254 29.5399 53.3528 29.9907 53.3782C30.2028 53.3782 30.4149 53.3273 30.6005 53.2254C30.7331 53.149 30.8657 53.0726 30.9983 52.9708C31.2104 52.818 31.4491 52.6906 31.6877 52.6142C31.8203 52.5633 31.9794 52.5887 32.112 52.6397C32.2976 52.7161 32.4567 52.8179 32.6158 52.9453C32.7749 53.0726 32.934 53.2 33.0666 53.3528C33.2522 53.531 33.4909 53.6074 33.7295 53.6074C33.9682 53.6074 34.2068 53.582 34.4455 53.5056C34.4985 53.4801 34.5781 53.4546 34.6311 53.4546C34.8433 53.4037 35.0819 53.4546 35.2675 53.582C35.3471 53.6584 35.4531 53.7093 35.5327 53.7857C35.6653 53.913 35.7979 54.0149 35.9835 54.0404C36.01 54.0404 36.0365 54.0658 36.063 54.0913C36.0895 54.1168 36.0895 54.1932 36.063 54.2186C35.957 54.2696 35.8244 54.295 35.6918 54.295C35.2145 54.295 34.7637 54.346 34.3129 54.4988C34.0212 54.5752 33.7561 54.6516 33.4644 54.7025C33.0401 54.7789 32.5893 54.728 32.1916 54.5497C32.0855 54.4988 31.9529 54.4733 31.8468 54.4224C31.7408 54.3714 31.6082 54.3969 31.5286 54.4733C31.4491 54.5497 31.343 54.6006 31.2369 54.677C30.7596 55.059 30.2293 55.3646 29.5929 55.4665C29.5664 55.4665 29.5399 55.492 29.5133 55.492L29.4868 55.5174C29.4868 55.5174 29.4868 55.5429 29.5133 55.5684C29.6459 55.6193 29.805 55.6957 29.9376 55.7466C30.468 55.9504 30.9983 56.205 31.5021 56.4597C31.7408 56.587 31.9529 56.7398 32.1385 56.9181C32.3507 57.0964 32.4832 57.3001 32.5363 57.5548C32.5628 57.6566 32.5363 57.7585 32.4302 57.8094C32.4037 57.8094 32.4037 57.8094 32.3772 57.8094C32.3241 57.8349 32.2446 57.8349 32.165 57.8349C31.5021 57.8349 30.8392 57.8604 30.1763 57.8349C29.8316 57.8094 29.4603 57.784 29.1156 57.8094C28.6383 57.8349 28.1875 57.8349 27.7102 57.8858C27.6572 57.8858 27.6041 57.8858 27.5511 57.8858C27.3655 57.8858 27.1799 57.9113 26.9942 57.9877C26.8086 58.0386 26.623 58.0896 26.4374 58.0641C26.1192 58.0641 25.801 58.0896 25.5093 58.1405C25.4032 58.1405 25.2972 58.166 25.1911 58.166C25.1115 58.166 25.0055 58.166 24.9259 58.1914C24.7933 58.1914 24.6607 58.2678 24.6077 58.3952C24.5812 58.4716 24.4751 58.548 24.3691 58.5225C24.1569 58.5225 23.9448 58.5225 23.7592 58.5225C23.6001 58.5225 23.5736 58.4716 23.547 58.3442C23.547 58.2169 23.547 58.0896 23.5205 57.9877C23.494 57.784 23.441 57.7076 23.2288 57.733C22.9637 57.7585 22.6985 57.7076 22.4333 57.7076C21.903 57.7076 21.3726 57.7076 20.8423 57.6821C19.9673 57.6566 19.0922 57.6566 18.2171 57.6312C17.952 57.6312 17.7133 57.6312 17.4481 57.6057C17.3421 57.6057 17.236 57.5802 17.1299 57.5548C17.0504 57.5548 17.0239 57.4784 17.0239 57.4274C17.0239 57.402 17.0239 57.402 17.0504 57.3765C17.1034 57.3001 17.1565 57.2237 17.236 57.1728C17.3421 57.0964 17.4481 57.0454 17.5542 56.969C17.6603 56.8926 17.7663 56.7908 17.7663 56.6634C17.8194 56.4342 17.8989 56.2305 18.005 56.0268C18.1376 55.7976 18.3232 55.6448 18.5619 55.5429C18.6149 55.5174 18.6679 55.492 18.721 55.4665C18.8005 55.4156 18.9066 55.441 18.9596 55.3392C18.8801 55.2882 18.8005 55.2628 18.721 55.2628C18.4293 55.2373 18.1641 55.2118 17.8724 55.2628C17.7398 55.2882 17.6072 55.3392 17.5012 55.4156C17.3951 55.492 17.3156 55.5429 17.2095 55.6193C16.9178 55.823 16.5731 55.9249 16.2018 55.8485C15.9632 55.7976 15.7511 55.7466 15.5124 55.6702C15.2207 55.5684 14.929 55.492 14.6639 55.3901C14.4252 55.3137 14.2131 55.2882 13.9744 55.2882C13.7888 55.2882 13.6297 55.3137 13.4706 55.3901C13.285 55.441 13.1259 55.492 12.9403 55.5429C12.8607 55.5684 12.8342 55.5174 12.8342 55.441C12.8342 55.4156 12.8342 55.3646 12.8607 55.3392C12.9403 55.059 13.0994 54.7789 13.285 54.5242C13.4706 54.2696 13.8153 54.1422 14.1335 54.2186C14.2661 54.2441 14.4252 54.2696 14.5578 54.3205C14.7965 54.4224 15.0616 54.4478 15.3268 54.3969C15.5124 54.3714 15.698 54.2696 15.8041 54.1168C15.9897 53.8876 16.1223 53.6329 16.2549 53.3528C16.4405 52.9708 16.7852 52.8434 17.183 52.8689C17.5277 52.8944 17.8724 52.9453 18.2171 53.0472C18.4028 53.0981 18.5884 53.1236 18.774 53.149C18.9066 53.1745 19.0392 53.149 19.1717 53.1236C19.2513 53.0981 19.3043 53.0726 19.3574 52.9962C19.4369 52.9453 19.4369 52.8434 19.4104 52.767C19.3308 52.6142 19.2778 52.4614 19.1983 52.3341C18.6679 51.4173 18.5884 50.4495 18.7475 49.4309C18.8005 49.1253 18.8801 48.8197 19.0126 48.5395C19.2513 48.0047 19.4899 47.4445 19.8612 46.9606C20.1794 46.5531 20.4711 46.1711 20.8158 45.7891C20.9484 45.6363 21.1075 45.4835 21.2401 45.3053C21.6643 44.8214 21.956 44.2611 22.1682 43.6499C22.4068 42.8859 22.3803 42.0455 22.0621 41.307C21.7174 40.4411 21.081 39.7026 20.2324 39.2442C19.7816 38.9895 19.2778 38.8367 18.7475 38.8113C18.6679 38.8113 18.6149 38.8113 18.5353 38.7858C18.058 38.7349 17.5807 38.7858 17.1299 38.9641C16.7322 39.1169 16.4405 39.4225 16.3609 39.8045C16.2549 40.3138 16.467 40.8486 16.9178 41.1287C17.4481 41.4343 18.005 41.4598 18.5884 41.2561C18.7475 41.2051 18.8801 41.0523 18.9331 40.8995C18.9861 40.6958 18.9596 40.4666 18.8801 40.2629C18.7475 39.9573 18.4558 39.8299 18.1376 39.7535C17.8989 39.7026 17.6338 39.7535 17.4216 39.8554C17.289 39.9063 17.2095 40.0337 17.2625 40.1865C17.289 40.2374 17.3156 40.2374 17.3686 40.2374C17.3951 40.2119 17.4216 40.161 17.4747 40.1355C17.6338 39.9827 17.7929 39.9063 18.0315 39.9827C18.0845 40.0082 18.1376 40.0082 18.1641 40.0082C18.3497 40.0591 18.4823 40.2629 18.4558 40.4411C18.4293 40.8741 18.005 41.2306 17.5542 41.1797C17.2625 41.1542 16.9708 40.9759 16.8648 40.7213C16.7587 40.543 16.7322 40.2883 16.8383 40.0846C16.8913 39.9827 16.9178 39.8809 16.9708 39.8045C17.183 39.4225 17.6072 39.1933 18.058 39.1933C18.4293 39.1933 18.721 39.3715 18.9596 39.6262C19.1983 39.8809 19.3308 40.2119 19.3574 40.5685C19.3574 40.7213 19.3308 40.8995 19.2513 41.0269C19.1187 41.307 18.8801 41.5617 18.5884 41.7145C18.3762 41.8418 18.1641 41.9182 17.952 41.9691C17.3686 42.0965 16.8648 41.9691 16.3609 41.689C16.0162 41.5107 15.7245 41.2306 15.5389 40.8995C15.3533 40.543 15.2738 40.1355 15.3268 39.7281C15.3268 39.7026 15.3268 39.7026 15.3268 39.6771C15.4594 39.4225 15.5124 39.0914 15.7511 38.8877C15.7776 38.8622 15.8041 38.8367 15.8041 38.8113C15.8306 38.7603 15.8836 38.7094 15.8571 38.6585C15.8306 38.5821 15.7511 38.633 15.698 38.633C15.5124 38.633 15.3533 38.6839 15.1942 38.7349C14.5048 38.9386 13.8684 39.2442 13.285 39.6517C12.8607 39.9318 12.463 40.2374 12.0917 40.5685C11.3227 41.2051 10.4742 41.7654 9.62565 42.2747C9.38699 42.4275 9.14834 42.5549 8.90969 42.7077C8.56497 42.9114 8.43239 43.217 8.37935 43.5735C8.32632 44.0319 8.4589 44.4649 8.77711 44.7959C9.20138 45.2543 9.73172 45.3817 10.3416 45.2798C10.4742 45.2543 10.5803 45.2289 10.7128 45.1779C11.0576 45.0761 11.2962 44.7959 11.2962 44.4394C11.3227 44.1847 11.2962 43.9301 11.2167 43.6754C11.1636 43.4971 11.031 43.3443 10.8719 43.2679C10.5007 43.0642 10.0764 43.0387 9.67868 43.1661C9.62565 43.1915 9.5461 43.217 9.49306 43.2425C9.25441 43.3189 9.12183 43.5481 9.12183 43.8027C9.14834 44.2102 9.44003 44.4649 9.83778 44.5413C9.89082 44.5413 9.94385 44.5413 9.99688 44.5413C10.0764 44.5413 10.1825 44.5667 10.2355 44.4649C10.2886 44.3375 10.2621 44.2102 10.156 44.1083C10.103 44.0829 10.0764 44.0574 10.0234 44.0319C9.97037 44.0065 9.94385 43.9555 9.94385 43.9046C9.94385 43.8282 9.99688 43.7773 10.0764 43.7773C10.1295 43.7773 10.1825 43.7773 10.2621 43.7773C10.5272 43.8537 10.6598 44.1338 10.5803 44.3885C10.5803 44.3885 10.5803 44.3885 10.5803 44.4139C10.4742 44.6941 10.2355 44.9233 9.91733 44.9997C9.81127 45.0251 9.67868 45.0251 9.57261 44.9742C9.30744 44.8978 9.09531 44.745 8.90969 44.5413C8.69756 44.2866 8.618 43.9555 8.75059 43.6499C8.85666 43.3698 9.04228 43.1151 9.30744 42.9369C9.65217 42.7077 10.0234 42.5549 10.4742 42.6313C10.8189 42.6822 11.1371 42.835 11.4023 43.0897C11.5349 43.217 11.6409 43.3443 11.7205 43.4971C11.8531 43.7773 11.8796 44.1083 11.7735 44.4139C11.6409 44.8214 11.3492 45.1779 11.0045 45.4581C10.7394 45.6618 10.4212 45.8401 10.103 45.9165C9.49306 46.0947 8.85666 45.9929 8.35283 45.6109C8.19373 45.509 8.03463 45.3817 7.90205 45.2289C7.55733 44.8723 7.34519 44.3885 7.34519 43.9046V43.2934C7.34519 43.0642 7.34519 43.0642 7.08002 43.0642C6.92092 43.0642 6.78834 43.0642 6.62923 43.0642C5.88676 43.0897 5.1708 42.9114 4.48136 42.6313C3.79192 42.3511 3.15552 41.9437 2.62518 41.4089C2.36001 41.1542 2.14787 40.8486 1.98877 40.5175C1.93574 40.4157 1.90922 40.3138 1.8827 40.1865C1.80315 39.779 1.77663 39.3715 1.82967 38.9641C1.90922 38.4547 2.14787 38.0218 2.54563 37.6653C2.89035 37.3342 3.2881 37.105 3.73889 36.9777C4.21619 36.8249 4.74653 36.7739 5.25035 36.8503C5.54204 36.9013 5.80721 36.9777 6.04586 37.105C6.60272 37.3851 6.94744 37.8181 7.00047 38.4293C7.05351 38.7603 7.02699 39.1169 6.92092 39.4225C6.86789 39.5753 6.78834 39.7026 6.68227 39.8045C6.33755 40.1865 5.83373 40.3902 5.3299 40.3647C4.64046 40.3647 4.00406 40.0082 3.63282 39.4479C3.34113 39.015 3.39417 38.4547 3.79192 38.0982C4.05709 37.8181 4.45485 37.6653 4.8526 37.6653C5.09125 37.6653 5.3299 37.7417 5.48901 37.8945C5.67462 38.0473 5.78069 38.2765 5.75418 38.5057C5.75418 38.7349 5.64811 38.9641 5.43597 39.1169C5.30339 39.2187 5.1708 39.2951 5.0117 39.3461C4.82608 39.4225 4.61395 39.3206 4.5344 39.1423C4.48136 39.0405 4.45485 38.9386 4.45485 38.8367C4.45485 38.7603 4.48136 38.6585 4.56091 38.6075C4.61395 38.5566 4.66698 38.5821 4.6935 38.633C4.72001 38.7094 4.74653 38.7603 4.82608 38.7858C4.93215 38.8113 5.0117 38.8113 5.11777 38.7858C5.22384 38.7349 5.30339 38.633 5.27687 38.5057C5.25035 38.4038 5.19732 38.3019 5.11777 38.251C4.87912 38.0727 4.58743 37.9963 4.29574 38.0727C4.13664 38.0982 4.03057 38.2255 4.00406 38.3529C3.97754 38.8113 4.08361 39.2187 4.42833 39.5243C4.48136 39.5753 4.5344 39.6007 4.58743 39.6517C4.90563 39.779 5.25035 39.9063 5.59507 39.8554C5.75418 39.8299 5.91328 39.8045 6.07238 39.7535C6.28451 39.7026 6.47013 39.5243 6.52317 39.2951C6.65575 38.9131 6.60272 38.5057 6.39058 38.1746C6.15193 37.7926 5.78069 37.5125 5.35642 37.3342C5.11777 37.2323 4.87912 37.1814 4.61395 37.1559C4.40181 37.1305 4.18968 37.1559 4.00406 37.2069C3.47372 37.3087 2.99641 37.5634 2.65169 37.9454C2.33349 38.251 2.20091 38.6839 2.25394 39.0914C2.36001 39.8045 2.70473 40.4921 3.26158 40.9759C3.6063 41.307 4.00406 41.5617 4.45485 41.7145C4.90563 41.8673 5.38294 41.9437 5.86024 41.9691C6.33755 41.9691 6.81485 41.8927 7.29216 41.7909C7.42474 41.7654 7.55733 41.7145 7.68991 41.6635C8.19373 41.5107 8.64452 41.307 9.09531 41.0269C9.73172 40.6449 10.3151 40.1865 10.8454 39.6517C11.3492 39.1933 11.8531 38.7349 12.3834 38.3019C12.6486 38.0982 12.9137 37.9199 13.1789 37.7417C13.5502 37.487 13.9479 37.2578 14.3722 37.0795C14.876 36.8758 15.3798 36.6975 15.9102 36.5957C16.2284 36.5447 16.5731 36.5193 16.8913 36.4938C17.6868 36.4429 18.4823 36.5193 19.2513 36.6721C19.7286 36.7739 20.2059 36.9267 20.6832 37.105C21.134 37.2833 21.5583 37.5125 21.9295 37.7671C21.9825 37.8181 22.0621 37.8435 22.1151 37.8945C22.2212 37.9709 22.3273 38.0473 22.4333 38.0727C22.4598 37.9199 22.3538 37.8181 22.3007 37.6907C22.1151 37.4106 21.903 37.1305 21.6643 36.9013C21.3196 36.5193 20.9219 36.1882 20.5241 35.9081C20.0998 35.6279 19.6225 35.3987 19.1187 35.2714C18.5884 35.1441 18.058 35.0677 17.5277 35.0677C17.0504 35.0422 16.5466 35.0677 16.0693 35.1186C15.4594 35.195 14.876 35.2459 14.2661 35.2969C13.7358 35.3478 13.2054 35.3733 12.6486 35.3478C12.2508 35.3223 11.8531 35.2714 11.4553 35.2205C10.9515 35.1441 10.4212 35.1695 9.94385 35.3478C9.41351 35.5515 9.12183 35.9335 8.96272 36.4174C8.90969 36.5702 8.93621 36.723 9.04228 36.8503C9.44003 37.4106 10.1825 37.6653 10.8719 37.487C11.2167 37.4106 11.4023 37.0541 11.3227 36.7485V36.723C11.2697 36.5447 11.1371 36.4174 10.978 36.3155C10.7659 36.1882 10.5007 36.1118 10.2355 36.1373C10.1295 36.1373 10.0499 36.2137 10.0499 36.3155V36.341C10.0499 36.4683 10.1295 36.5957 10.2355 36.6466C10.3151 36.723 10.4477 36.723 10.5272 36.6466C10.5537 36.6211 10.5803 36.5957 10.5803 36.5702C10.6068 36.5447 10.6068 36.4938 10.6068 36.4683C10.6333 36.3919 10.7128 36.341 10.7924 36.3665C10.8189 36.3665 10.8454 36.3919 10.8719 36.4174C10.925 36.4938 10.9515 36.5957 10.925 36.6721C10.8719 36.9013 10.5537 37.1814 10.3151 37.2069C10.2621 37.2069 10.209 37.2069 10.1295 37.1814C9.7052 37.0541 9.49306 36.6211 9.62565 36.2137C9.67868 36.0354 9.81127 35.9081 9.97037 35.8062C10.3681 35.577 10.7924 35.5515 11.1901 35.7553C11.4288 35.8826 11.6144 36.1373 11.6675 36.3919C11.7205 36.6211 11.7205 36.8758 11.6675 37.1305C11.6409 37.2578 11.5614 37.3851 11.4818 37.5125C11.1636 37.8945 10.7128 38.1237 10.209 38.2001C9.99688 38.2255 9.78475 38.2255 9.57261 38.1491C9.04228 38.0218 8.59149 37.7162 8.2998 37.2833C8.00811 36.8503 7.95508 36.3155 8.16722 35.8571C8.35283 35.3987 8.69755 35.0677 9.06879 34.7621C9.14834 34.7111 9.20138 34.6602 9.25441 34.5838C9.28093 34.5583 9.28093 34.5074 9.25441 34.4819C9.20138 34.4565 9.14834 34.4055 9.06879 34.3801C8.1407 33.9471 7.26564 33.4123 6.49665 32.7757C6.04586 32.4191 5.59507 32.0626 5.11777 31.7061C4.87912 31.5278 4.64046 31.375 4.37529 31.2731C3.79192 31.0185 3.15552 30.942 2.54563 30.993C2.17439 31.0184 1.82967 31.1458 1.53798 31.3495C1.32585 31.5278 1.14023 31.7825 1.06068 32.0371C0.901576 32.5465 0.928093 33.1067 1.11371 33.6161C1.14023 33.667 1.16675 33.7434 1.19326 33.7943C1.27281 34.049 1.43191 34.2527 1.64405 34.4055C1.90922 34.6347 2.20091 34.7875 2.51911 34.9149C2.89035 35.0422 3.2881 35.0422 3.63282 34.9149C3.81844 34.8639 4.00406 34.7111 4.11012 34.5583C4.26923 34.3037 4.37529 33.9981 4.37529 33.7179C4.37529 33.0049 3.7654 32.4446 3.04945 32.4446C2.89035 32.4446 2.73124 32.4701 2.59866 32.521C2.51911 32.5465 2.46608 32.5974 2.41304 32.6483C2.09484 32.9794 2.12135 33.5142 2.49259 33.8198L2.51911 33.8453C2.73124 34.0235 2.99641 34.0745 3.26158 34.049C3.31462 34.049 3.36765 34.0235 3.36765 33.9726C3.42068 33.8453 3.42068 33.6925 3.39417 33.5651C3.34113 33.3869 3.23507 33.2595 3.02293 33.2595C2.99641 33.2595 2.94338 33.285 2.94338 33.2086C2.94338 33.1831 2.9699 33.1577 2.99641 33.1577C3.07596 33.1067 3.18203 33.0558 3.26158 33.0049C3.4472 32.903 3.57979 32.9285 3.68585 33.1067C3.97754 33.4887 3.97754 33.8198 3.63282 34.1509C3.39417 34.4055 3.02293 34.5329 2.67821 34.4565C2.30697 34.3801 2.01529 34.1509 1.85619 33.8453C1.69708 33.5651 1.67057 33.2341 1.7236 32.903C1.75012 32.7502 1.82967 32.5974 1.96225 32.4955C2.28046 32.1645 2.67821 31.9607 3.15552 31.9862C3.73889 31.9862 4.24271 32.2918 4.5344 32.7502C4.72001 33.0303 4.82608 33.3869 4.79957 33.7179C4.77305 34.2527 4.56091 34.7111 4.08361 35.0167C4.03057 35.0422 3.97754 35.0677 3.92451 35.1186C3.26158 35.5515 2.57214 35.5515 1.85619 35.2459C1.37888 35.0422 0.981127 34.7111 0.662923 34.3037C0.397754 33.9981 0.238652 33.6161 0.185619 33.2086C0.132585 32.8521 0.132585 32.4955 0.185619 32.139C0.318203 31.3495 0.822025 30.6619 1.53798 30.2799C1.82967 30.1271 2.12135 29.9998 2.41304 29.8979C2.57214 29.847 2.75776 29.796 2.91686 29.796C3.18203 29.796 3.4472 29.7451 3.71237 29.8215C3.73889 29.8215 3.79192 29.8215 3.81844 29.8215C3.87147 29.8215 3.92451 29.796 3.89799 29.7451C3.89799 29.6432 3.87147 29.5414 3.87147 29.4395C3.79192 28.9811 3.73889 28.4972 3.73889 28.0388C3.73889 27.4022 3.73889 26.7655 3.73889 26.1288C3.73889 25.7468 3.65934 25.3648 3.52675 24.9828C3.36765 24.499 2.9699 24.2188 2.43956 24.1679C2.30697 24.1679 2.17439 24.1679 2.06832 24.1679C1.82967 24.1679 1.59102 24.2698 1.4054 24.448C1.27281 24.5754 1.16675 24.7282 1.08719 24.881C1.08719 24.9064 1.08719 24.9319 1.08719 24.9574C1.11371 24.9828 1.14023 24.9574 1.16675 24.9319C1.29933 24.8046 1.45843 24.6772 1.64405 24.6008C1.80315 24.5244 1.96225 24.4735 2.14787 24.448C2.17439 24.448 2.22742 24.448 2.25394 24.448C2.62518 24.499 2.94338 24.7027 3.129 25.0083C3.34113 25.3394 3.47372 25.7214 3.47372 26.1034C3.50024 26.4344 3.31462 26.74 3.04945 26.9183C2.22742 27.5295 1.06068 27.3767 0.450788 26.5872L0.424271 26.5618C0.185619 26.2562 0.0530339 25.8996 0.0265169 25.5176C5.927e-09 25.4158 0 25.3139 0 25.212C0 24.8046 0.106068 24.4226 0.318203 24.066C0.530339 23.7095 0.848542 23.4548 1.21978 23.302C2.17439 23.1747 2.91686 23.1747 3.55327 23.5058C4.03057 23.735 4.45485 24.066 4.74653 24.499C4.8526 24.6772 4.95867 24.881 5.03822 25.0847C5.09125 25.2375 5.14429 25.3648 5.19732 25.5176C5.19732 25.5431 5.22384 25.5686 5.25035 25.5686C5.25035 25.5686 5.27687 25.5686 5.27687 25.5431C5.3299 25.5176 5.38294 25.4667 5.43597 25.4158C5.51552 25.3394 5.59507 25.263 5.67462 25.1866C6.15193 24.7536 6.76182 24.448 7.42474 24.3462C7.79598 24.2698 8.19373 24.2443 8.59149 24.2443C9.04228 24.2443 9.51958 24.3462 9.94385 24.5244C10.4477 24.7282 10.8985 24.9828 11.3492 25.2884C11.7735 25.594 12.1182 26.027 12.3039 26.5108C12.5425 27.0202 12.6751 27.555 12.7016 28.0898C12.7281 28.8538 12.569 29.5923 12.0917 30.229C11.9326 30.4072 11.7735 30.5855 11.5879 30.7383C11.2697 30.993 10.8985 31.1713 10.5007 31.2986C9.73172 31.5533 8.90969 31.4259 8.24677 30.993C7.61036 30.611 7.13306 29.9998 6.92092 29.2867C6.7353 28.7519 6.78834 28.1662 7.0535 27.6823C7.31867 27.2239 7.74295 26.8674 8.27328 26.7146C8.80362 26.5363 9.25441 26.6636 9.67868 26.9947C10.209 27.4276 10.5007 28.0898 10.4477 28.7519C10.4477 28.8792 10.3946 29.0066 10.3681 29.1339C10.2355 29.465 9.97037 29.6432 9.65216 29.7196C9.51958 29.7706 9.36048 29.7451 9.22789 29.6687C8.98924 29.5668 8.77711 29.4395 8.59149 29.2867C8.53845 29.2358 8.4589 29.1594 8.40587 29.1084C8.16722 28.8028 8.22025 28.3444 8.53845 28.1152C8.56497 28.1152 8.56497 28.0898 8.59149 28.0898C8.72407 28.0134 8.85666 27.937 8.98924 27.886C9.12183 27.8351 9.28093 27.886 9.387 27.9879C9.44003 28.0388 9.41351 28.0898 9.36048 28.1152C9.28093 28.1407 9.20138 28.1407 9.12183 28.1407C8.90969 28.1407 8.75059 28.268 8.75059 28.4718C8.75059 28.4972 8.75059 28.5482 8.75059 28.5736C8.83014 29.0575 9.33396 29.2867 9.75823 29.1848C9.8643 29.1594 9.94385 29.083 9.99688 28.9811C10.0499 28.8792 10.0764 28.7774 10.0764 28.6755C10.103 28.2171 9.94385 27.7587 9.57261 27.4276C8.98924 26.8419 8.03463 27.0456 7.61036 27.6568C7.37171 28.0134 7.29216 28.4208 7.37171 28.8283C7.47778 29.5159 7.90205 30.1271 8.53845 30.4836C8.98924 30.7638 9.51958 30.8911 10.0499 30.8656C10.3151 30.8402 10.5803 30.7892 10.8189 30.6619C11.031 30.56 11.1901 30.3818 11.3227 30.2035C11.6409 29.7451 11.8 29.1594 11.694 28.6246C11.5879 27.8606 11.2432 27.173 10.6598 26.6382C10.5272 26.5108 10.3946 26.409 10.2621 26.3071C9.81127 25.9506 9.25441 25.7214 8.69755 25.6704C8.03463 25.6195 7.37171 25.7214 6.81485 26.0524C6.12541 26.4599 5.75418 27.0966 5.62159 27.8351C5.51552 28.4463 5.62159 29.0575 5.86024 29.6432C6.17845 30.4836 6.70879 31.2222 7.39823 31.8079C8.08767 32.4446 8.90969 32.9285 9.81127 33.2341C10.2355 33.3614 10.6598 33.4633 11.0841 33.5397C11.6144 33.6415 12.1713 33.6925 12.7281 33.6925C13.0463 33.6925 13.3911 33.7434 13.7358 33.667C13.7623 33.667 13.7623 33.667 13.7888 33.667C14.3191 33.667 14.823 33.6415 15.3533 33.5651C15.7511 33.5397 16.1488 33.5142 16.5466 33.4633L17.2095 33.4123C17.289 33.4123 17.3421 33.4123 17.4216 33.3869C17.6072 33.3614 17.7929 33.3359 17.9785 33.3614C18.6679 33.3869 19.3574 33.4887 20.0468 33.6161C20.8423 33.7943 21.6113 34.0745 22.3273 34.4819C22.8046 34.7621 23.2554 35.0931 23.6531 35.4751C23.7061 35.5261 23.7327 35.5515 23.7857 35.6025C23.8387 35.6279 23.8918 35.6279 23.9183 35.577C23.9713 35.4242 23.9978 35.2459 24.0243 35.0931C24.0774 34.5583 24.1039 33.9981 24.0774 33.4633C24.0509 32.5465 23.8918 31.6296 23.6266 30.7383C23.5205 30.3818 23.3879 30.0507 23.2288 29.6942C23.0432 29.3122 22.8311 28.9302 22.5659 28.5991C22.4598 28.4463 22.3273 28.2935 22.1947 28.1152C22.0621 27.9624 21.903 27.8096 21.7174 27.7078C21.1075 27.2239 20.3915 26.8928 19.6225 26.7655C19.0922 26.6636 18.5619 26.7146 18.058 26.8928C17.5807 27.0711 17.183 27.4276 17.0239 27.9115C16.8117 28.4208 16.7852 28.9811 16.9178 29.5159C16.9443 29.5923 16.9708 29.6687 16.9708 29.7451C17.1034 30.178 17.3686 30.56 17.7398 30.8147C17.8989 30.942 18.0845 31.0694 18.2702 31.1458C18.8005 31.4259 19.4634 31.4259 20.0203 31.1203C20.1794 31.0184 20.312 30.9166 20.418 30.7638C20.7893 30.229 20.8423 29.6687 20.5241 29.1084C20.365 28.8283 20.0733 28.5991 19.7286 28.4972C19.6756 28.4718 19.596 28.4463 19.543 28.4463C19.2513 28.3699 18.9596 28.3699 18.6679 28.4718C18.4293 28.5482 18.2171 28.7264 18.1641 28.9811C18.0845 29.2103 18.1111 29.4395 18.1906 29.6687C18.2171 29.6942 18.2171 29.7451 18.2437 29.7706C18.4293 30.1016 19.0657 30.3054 19.4369 30.0762C19.543 30.0252 19.5695 29.9743 19.543 29.8724C19.5165 29.7451 19.4634 29.6178 19.3839 29.5159C19.3308 29.4395 19.2778 29.3631 19.2513 29.2867C19.2248 29.2358 19.2513 29.1848 19.3308 29.1594C19.3839 29.1339 19.4634 29.1339 19.543 29.1594C19.8612 29.2612 19.9938 29.4904 19.9673 29.847C19.9407 30.0762 19.8082 30.3054 19.6225 30.4327C19.4634 30.5346 19.3043 30.611 19.1187 30.6619C18.9861 30.6874 18.8535 30.6874 18.7475 30.6619C18.4823 30.611 18.2437 30.4582 18.058 30.2799C17.9254 30.1526 17.8459 29.9998 17.8194 29.8215C17.7663 29.5414 17.7929 29.2358 17.8724 28.9556C17.8989 28.8792 17.9254 28.8283 17.9785 28.7519C18.2171 28.4208 18.5353 28.1916 18.9066 28.0388C19.2513 27.886 19.649 27.8351 20.0203 27.886C20.2324 27.9115 20.4446 27.9879 20.6037 28.1152C20.7362 28.1916 20.8688 28.2935 20.9749 28.3954C21.2135 28.5736 21.3726 28.7774 21.4787 29.032C21.85 29.847 21.7439 30.7892 21.187 31.5023C20.7893 32.0626 20.2059 32.3427 19.5165 32.3682C18.9066 32.3937 18.2702 32.2663 17.7398 31.9607C17.3951 31.7825 17.0769 31.5787 16.7852 31.3241C16.5466 31.0948 16.3344 30.8402 16.1753 30.56C15.8041 29.9234 15.6185 29.2358 15.645 28.4972C15.6715 27.7587 15.9897 27.0456 16.5201 26.5108C16.8913 26.1288 17.3686 25.8487 17.8989 25.6704C18.1376 25.594 18.4028 25.5431 18.6414 25.4922C18.6679 25.4922 18.6679 25.4667 18.6944 25.4667C18.6944 25.4412 18.6679 25.4412 18.6679 25.4158C18.3762 25.212 18.0845 25.0083 17.7929 24.8046C17.3686 24.4735 16.9708 24.117 16.6261 23.7095C16.2814 23.3275 15.9632 22.9455 15.645 22.5635C15.2472 22.1306 14.7434 21.825 14.16 21.7231C13.8684 21.6467 13.5767 21.6467 13.285 21.6976C12.8607 21.774 12.5425 22.0287 12.3039 22.3598C12.3039 22.3852 12.2773 22.3852 12.2773 22.4107C11.8266 23.2002 12.2773 23.7604 12.8077 24.066C13.1259 24.2443 13.5236 24.2952 13.8949 24.1679C14.2131 24.066 14.4517 23.7859 14.4517 23.4548C14.4517 23.2766 14.3457 23.0983 14.1866 22.971C14.0805 22.8691 13.9214 22.8182 13.7888 22.7927C13.5767 22.7418 13.338 22.8691 13.285 23.0728C13.285 23.0983 13.285 23.1492 13.285 23.1747C13.3645 23.353 13.5767 23.4548 13.7623 23.3784C13.7623 23.3784 13.7888 23.3784 13.7888 23.353C13.8684 23.3275 13.9214 23.2766 14.0009 23.2256C14.0275 23.2002 14.0805 23.2511 14.0805 23.2766C14.107 23.4294 14.054 23.5567 13.9479 23.6586C13.7093 23.8878 13.338 23.8878 13.1259 23.6586C12.9403 23.5058 12.8342 23.2511 12.8607 23.0219C12.8607 22.8436 12.9403 22.6908 13.0994 22.589C13.4176 22.3343 13.8684 22.2579 14.2661 22.3343C14.5313 22.3852 14.7434 22.5635 14.876 22.7927C15.1147 23.2002 15.0616 23.6076 14.823 24.0151C14.6639 24.2952 14.3987 24.5244 14.107 24.6518C13.4176 24.9828 12.7016 24.9828 12.0387 24.6008C11.747 24.448 11.5349 24.2188 11.3758 23.9387C11.1901 23.5567 11.1106 23.1492 11.1901 22.7418C11.2962 22.0542 11.6675 21.5703 12.2508 21.1883C12.4364 21.061 12.6751 20.9336 12.8872 20.8572C13.0728 20.7808 13.285 20.7299 13.4971 20.7299C13.6032 20.7299 13.6827 20.7299 13.7888 20.679C13.8684 20.6535 13.9744 20.7044 14.0009 20.6026C14.0009 20.5516 13.9479 20.5007 13.8949 20.4498C13.3115 19.7876 12.6221 19.2274 11.8531 18.8199C11.1901 18.4634 10.4742 18.1832 9.75823 18.0304C9.38699 17.9286 8.98924 17.8776 8.59149 17.9031C7.92856 17.954 7.23912 18.005 6.60272 18.2342C6.12541 18.387 5.70114 18.6926 5.40946 19.1255C5.30339 19.2783 5.25035 19.4311 5.19732 19.5839C4.98518 20.2206 5.0117 20.9082 5.27687 21.5194C5.54204 22.1306 6.07238 22.6144 6.76182 22.7927C7.31867 22.9964 7.90205 22.9964 8.4589 22.8436C8.98924 22.6908 9.387 22.3088 9.5461 21.825C9.62565 21.6212 9.65216 21.4175 9.65216 21.1883C9.65216 20.9336 9.5461 20.679 9.387 20.5007C9.12183 20.1951 8.77711 19.9659 8.37935 19.864C8.16722 19.8131 7.95508 19.7876 7.74295 19.8386C7.21261 19.9404 6.84137 20.3734 6.81485 20.9082C6.78834 21.2138 6.8944 21.5194 7.10654 21.774C7.23912 21.9523 7.47778 22.0542 7.71643 22.0287C7.92856 22.0287 8.11418 21.8759 8.19373 21.6976C8.24677 21.5703 8.27328 21.443 8.27328 21.3156C8.27328 21.0864 8.11418 20.9082 7.90205 20.8318C7.79598 20.7808 7.68991 20.8318 7.63688 20.9082C7.61036 20.9336 7.61036 20.9591 7.61036 21.01C7.61036 21.0355 7.61036 21.0864 7.61036 21.1119C7.61036 21.1883 7.63688 21.2392 7.71643 21.2647C7.74295 21.2647 7.79598 21.2902 7.8225 21.2902C7.84901 21.3156 7.87553 21.3411 7.87553 21.392C7.87553 21.443 7.84901 21.4684 7.8225 21.4684C7.71643 21.4939 7.58384 21.4939 7.47778 21.4684C7.42474 21.443 7.37171 21.4175 7.34519 21.3666C7.18609 21.1374 7.29216 20.7299 7.58384 20.628C7.95508 20.4752 8.37935 20.5516 8.67104 20.8063C8.77711 20.9082 8.85666 21.0355 8.85666 21.1883C8.90969 21.6976 8.69755 22.0796 8.22025 22.2834C8.06115 22.3598 7.90205 22.4107 7.74295 22.4362C7.47778 22.4871 7.26564 22.4107 7.02699 22.3088C6.7353 22.1815 6.54968 21.9268 6.44362 21.6467C6.258 21.1119 6.36406 20.5007 6.7353 20.0423C6.84137 19.915 6.97395 19.8131 7.10654 19.7367C7.55733 19.4566 8.11418 19.3802 8.64452 19.5075C8.90969 19.5584 9.14834 19.6603 9.36048 19.8131C9.83778 20.1187 10.156 20.5771 10.2621 21.1119C10.3151 21.3411 10.3416 21.5703 10.3151 21.7995C10.2886 22.156 10.1825 22.4871 10.0234 22.7927C9.83778 23.0728 9.59913 23.302 9.28093 23.4548C8.80362 23.7095 8.27328 23.8623 7.71643 23.8623C7.18609 23.8878 6.65575 23.7859 6.15193 23.6331C5.48901 23.3784 4.90563 22.9455 4.5344 22.3343C4.24271 21.9014 4.05709 21.392 4.00406 20.8572C3.97754 20.6026 3.97754 20.3224 4.03057 20.0678C4.11012 19.482 4.34878 18.9472 4.72001 18.4634C4.79957 18.3615 4.87912 18.2596 4.95867 18.1832C5.46249 17.5975 6.15193 17.2664 6.8944 17.0372C7.55733 16.8335 8.27328 16.7316 8.98924 16.7571C9.81127 16.7571 10.6333 16.8844 11.4023 17.1391C12.2773 17.4192 13.0994 17.8522 13.8153 18.4124C13.9479 18.5143 14.0805 18.6162 14.2396 18.718C14.3191 18.769 14.3987 18.8454 14.4782 18.9218C15.1147 19.533 15.7245 20.1951 16.2814 20.9082C16.5201 21.2138 16.7057 21.5194 16.8913 21.825C17.0504 22.1051 17.2095 22.3598 17.3686 22.6399C17.3951 22.6908 17.4216 22.7418 17.4481 22.7418C17.5277 22.7163 17.4747 22.6399 17.4747 22.589C17.4481 22.3598 17.4481 22.1306 17.3951 21.9268C17.3156 21.443 17.3421 20.9591 17.4747 20.5007C17.5542 20.0932 17.6868 19.7112 17.8459 19.3292C18.0315 18.8963 18.2171 18.4888 18.4293 18.0559C18.774 17.2919 19.1452 16.5534 19.4634 15.7894C19.7021 15.2291 19.8877 14.6434 19.9938 14.0322C20.0733 13.4464 20.0203 12.8352 19.8612 12.275C19.6756 11.5619 19.2248 11.0526 18.6149 10.6196C18.1906 10.314 17.7133 10.1103 17.2095 10.0084C16.2284 9.77922 15.2207 9.85562 14.2661 10.2121C13.6297 10.4668 13.0728 10.8743 12.7016 11.4346C12.3569 11.9439 12.1448 12.5042 12.0652 13.1154C11.9591 13.752 12.0652 14.3887 12.3569 14.9744C12.4099 15.1018 12.4895 15.2291 12.5955 15.331C13.0728 15.9167 13.7358 16.2987 14.5048 16.426C14.7699 16.4515 15.0086 16.4515 15.2738 16.426C15.7511 16.3751 16.2018 16.2223 16.5996 15.9931C17.3156 15.5602 17.7663 14.9744 17.8459 14.1595C17.8724 13.8284 17.8459 13.4719 17.7398 13.1663C17.6338 12.7843 17.3686 12.4278 17.0239 12.1986C16.5996 11.893 16.0162 11.8166 15.5124 12.0203C15.2207 12.1222 14.9556 12.3004 14.7434 12.5296C14.5048 12.7843 14.3191 13.0899 14.3722 13.4719C14.3722 13.6502 14.4252 13.8284 14.4782 13.9812C14.6373 14.2614 14.876 14.4651 15.1677 14.5924C15.2738 14.6434 15.4063 14.6434 15.5124 14.6434C15.7776 14.6179 15.8306 14.5415 15.8836 14.3378C15.9102 14.2104 15.9367 14.0831 15.9367 13.9558C15.9632 13.8539 15.8571 13.752 15.7511 13.7266C15.7245 13.7266 15.7245 13.7266 15.698 13.7266C15.5654 13.7266 15.4329 13.803 15.4063 13.9558C15.4063 14.0067 15.3798 14.0576 15.3003 14.0322C15.2472 14.0322 15.1942 13.9812 15.1677 13.9303C15.0881 13.7011 15.2207 13.4464 15.4594 13.3446C15.7245 13.2427 16.0162 13.2936 16.2284 13.4464C16.3609 13.5483 16.4405 13.7266 16.4405 13.9048C16.4935 14.2614 16.3344 14.6179 16.0693 14.8726C15.8836 15.0254 15.645 15.1018 15.4063 15.0763C14.6904 15.0508 14.2396 14.6688 14.0009 14.0576C13.7888 13.5483 13.7888 12.988 13.9744 12.4787C14.054 12.2495 14.16 12.0458 14.2926 11.842C14.4517 11.6128 14.6373 11.4346 14.876 11.3072C15.0881 11.1799 15.3268 11.078 15.5654 11.0271C16.2549 10.8998 16.9178 10.9507 17.5277 11.3582C18.1641 11.8166 18.6149 12.4532 18.774 13.2172C18.827 13.5483 18.8535 13.8794 18.8005 14.2104C18.7475 14.6179 18.6414 15.0254 18.4293 15.3819C18.3232 15.5602 18.2171 15.7384 18.0845 15.8912C17.7398 16.3242 17.3156 16.6807 16.8117 16.9863C16.414 17.2155 15.9632 17.3428 15.5124 17.4192C15.0351 17.4956 14.5578 17.4702 14.0805 17.3938C13.4176 17.2664 12.8077 16.9863 12.2773 16.5788C11.747 16.1714 11.3492 15.6366 11.0841 15.0254C10.8985 14.6179 10.7659 14.185 10.6598 13.752C10.5007 13.1154 10.5537 12.4532 10.7394 11.842C10.9515 11.1799 11.2962 10.5687 11.7735 10.0593C12.1713 9.60095 12.6751 9.21895 13.2585 8.98975C13.7888 8.76055 14.3722 8.63321 14.9556 8.55681C15.3268 8.50588 15.698 8.50588 16.0693 8.48041C16.3344 8.48041 16.6261 8.48041 16.8913 8.53135C17.3156 8.58228 17.7133 8.68415 18.1111 8.83695C18.4823 8.98975 18.8535 9.16801 19.1717 9.42268C19.4899 9.65188 19.7816 9.90655 20.0468 10.2121C20.4976 10.7215 20.8688 11.3072 21.1075 11.9439C21.2401 12.3259 21.3461 12.7334 21.3992 13.1408C21.4522 13.421 21.4522 13.7011 21.4522 13.9812C21.4257 14.5415 21.3196 15.0763 21.1075 15.6111C20.7628 16.5024 20.3385 17.3428 19.9407 18.2087C19.7021 18.718 19.4899 19.2274 19.3043 19.7622C19.1983 20.0678 19.1187 20.3479 19.0922 20.679C19.0657 21.061 19.0922 21.4684 19.2248 21.8504C19.3308 22.156 19.4369 22.4616 19.596 22.7672C19.8347 23.2511 20.1529 23.7095 20.5241 24.0915C20.9749 24.5754 21.4787 24.9828 21.9825 25.4158C22.3538 25.7468 22.8046 26.027 23.1493 26.409C23.5736 26.8674 24.0774 27.3003 24.4486 27.7842C24.9259 28.3954 25.3237 29.083 25.6154 29.796C25.7745 30.178 25.907 30.56 26.0396 30.942C26.0661 31.0184 26.0927 31.0949 26.1192 31.1458C26.1457 31.1967 26.1722 31.2222 26.2252 31.2476C26.2783 31.2476 26.3048 31.1967 26.3048 31.1458C26.3843 30.9675 26.4374 30.8147 26.4904 30.6364C26.8086 29.7451 27.2064 28.8792 27.6837 28.0643C27.8428 27.8096 28.0019 27.555 28.161 27.3003C28.4527 26.791 28.7709 26.2816 29.0626 25.7723C29.3808 25.2375 29.699 24.6772 29.9907 24.1424C30.1498 23.8114 30.3089 23.4803 30.3884 23.1238C30.4414 22.9455 30.468 22.7672 30.4945 22.5635C30.574 22.0032 30.574 21.443 30.468 20.8827C30.3354 20.2206 30.0967 19.5584 29.7255 18.9727C29.4603 18.4888 29.0626 18.0814 28.5587 17.8012C28.0019 17.4702 27.339 17.3174 26.676 17.3683C26.0131 17.3938 25.3502 17.572 24.7933 17.9031C24.0243 18.336 23.3879 18.9218 23.0963 19.7622C22.8841 20.3734 22.8841 21.01 23.1228 21.6212C23.2288 21.9014 23.3879 22.1815 23.6001 22.4362C23.8652 22.7927 24.2365 23.0474 24.6607 23.1747C25.3767 23.4039 26.1722 23.353 26.8882 23.0728C26.9677 23.0474 27.0738 22.9964 27.1268 22.92C27.2594 22.7927 27.4185 22.6654 27.5511 22.538C27.9754 22.156 28.214 21.5958 28.161 21.0355C28.1345 20.5262 27.8428 20.0932 27.392 19.8386C26.9147 19.533 26.2783 19.482 25.7745 19.7367C25.6419 19.7876 25.5093 19.864 25.3767 19.9404C25.1115 20.0932 24.9259 20.3734 24.8464 20.6535C24.6607 21.4684 25.2972 22.0032 25.8805 22.0032C26.0927 22.0032 26.3048 22.0032 26.5169 21.9523C26.7556 21.9014 26.8882 21.6976 26.8617 21.4684C26.8351 21.2647 26.7821 21.0864 26.5965 20.9591C26.4374 20.8318 26.1987 20.8572 26.0661 20.9846C25.9866 21.061 25.8805 21.1374 25.7745 21.2138C25.7479 21.2392 25.7214 21.2647 25.6684 21.2647C25.6154 21.2902 25.5358 21.2647 25.5093 21.2392C25.4828 21.2138 25.4828 21.1374 25.5093 21.1119C25.5358 21.061 25.5623 21.01 25.5888 20.9591C25.7745 20.628 26.0131 20.5262 26.3844 20.628C26.7821 20.7299 27.0738 21.0355 27.1533 21.392C27.1799 21.4939 27.1799 21.5703 27.1533 21.6722C27.1003 21.825 27.0208 21.9778 26.9412 22.1051C26.623 22.589 26.0927 22.6908 25.5888 22.5126C25.0585 22.3343 24.6607 21.9268 24.5282 21.4175C24.3956 21.01 24.4486 20.5771 24.6077 20.1951C24.7403 19.915 24.9259 19.6858 25.1911 19.482C25.3237 19.4056 25.4563 19.3292 25.5888 19.2783C25.7745 19.2019 25.9866 19.151 26.2252 19.151C26.57 19.1255 26.8882 19.1764 27.2064 19.2783C27.5246 19.3802 27.8163 19.5584 28.0284 19.7876C28.3731 20.1187 28.5853 20.5516 28.6383 21.01C28.6648 21.2138 28.6383 21.4175 28.6118 21.6212C28.5057 22.1051 28.2671 22.538 27.8958 22.8691C27.392 23.353 26.3313 23.7859 25.6949 23.8114C25.4032 23.8368 25.1115 23.8623 24.8199 23.8368C24.263 23.8114 23.7327 23.6331 23.2554 23.3275C22.8046 23.0219 22.4333 22.6144 22.2212 22.1306C21.7969 21.2138 21.7439 20.2715 21.9825 19.3038C22.1416 18.6926 22.4333 18.1323 22.8576 17.623C23.1493 17.2919 23.4675 16.9863 23.8387 16.7316C24.4751 16.2987 25.2176 15.9931 25.9866 15.8658C26.3313 15.8148 26.7026 15.8148 27.0473 15.8658C27.1799 15.8658 27.3124 15.8912 27.445 15.8912C27.5776 15.8912 27.6041 15.8403 27.5511 15.7384C27.4715 15.5347 27.392 15.3564 27.2859 15.1782C26.9412 14.5924 26.5965 14.0322 26.1987 13.4719C25.9336 13.1154 25.6419 12.7843 25.3237 12.4532C24.8464 11.9694 24.3956 11.4855 23.9183 11.0016C23.6266 10.696 23.3879 10.365 23.1228 10.0339C22.8841 9.72828 22.6455 9.42268 22.4333 9.11708C22.0621 8.63321 21.7704 8.12388 21.5583 7.56361C21.2931 6.87601 21.0279 6.16294 20.7628 5.47534C20.4976 4.81321 20.1264 4.20201 19.649 3.66721C18.9596 2.92867 18.1376 2.4448 17.1034 2.31747C16.3344 2.2156 15.592 2.31747 14.929 2.72494C14.5313 2.95414 14.1866 3.31067 14.0009 3.71814C13.7358 4.17654 13.6297 4.68587 13.6562 5.22068C13.6827 5.78094 13.9214 6.34121 14.3457 6.74868C14.6904 7.07974 15.1147 7.30894 15.6185 7.35988C15.8306 7.38535 16.0427 7.35988 16.2284 7.30895C16.4935 7.25801 16.7587 7.15614 16.9974 7.02881C17.3156 6.85054 17.6072 6.59588 17.7663 6.29028C17.8724 6.11201 17.9254 5.90828 17.9254 5.70454C17.9254 5.37348 17.8724 5.06787 17.7398 4.76227C17.6338 4.55854 17.5012 4.38027 17.3421 4.25294C17.0239 3.97281 16.6792 3.92187 16.2814 3.99827C15.9897 4.04921 15.7511 4.15107 15.5124 4.30387C15.4594 4.32934 15.4063 4.38027 15.3533 4.43121C15.3003 4.48214 15.2738 4.53307 15.2207 4.58401C14.876 4.88961 14.8495 5.29707 14.9025 5.67908C14.9556 6.08654 15.4329 6.34121 15.8571 6.23934C16.0427 6.21388 16.2018 6.08654 16.2814 5.90828C16.3344 5.70454 16.3875 5.50081 16.2814 5.29707C16.2018 5.11881 15.9897 5.06787 15.8041 5.14428C15.7245 5.16974 15.698 5.27161 15.7245 5.32254L15.7511 5.34801C15.8041 5.39894 15.8571 5.44988 15.9102 5.50081C15.9632 5.55174 15.9632 5.65361 15.8836 5.70454C15.8571 5.73001 15.8571 5.73001 15.8306 5.73001C15.698 5.75548 15.5654 5.73001 15.4594 5.65361C15.4329 5.62814 15.4063 5.60268 15.4063 5.55174C15.3533 5.34801 15.4063 5.14427 15.5124 4.96601C15.592 4.83867 15.698 4.78774 15.8571 4.78774C16.1753 4.78774 16.3875 4.94054 16.5201 5.16974C16.6792 5.39894 16.7322 5.65361 16.7057 5.93374C16.6792 6.08654 16.6261 6.21388 16.5201 6.29028C16.1223 6.64681 15.4063 6.79961 14.876 6.41761C14.6373 6.23934 14.5313 5.98468 14.4517 5.73001C14.4252 5.60268 14.3987 5.50081 14.3987 5.37348C14.3722 5.09334 14.4252 4.81321 14.5578 4.58401C14.7434 4.25294 15.0086 3.97281 15.3268 3.74361C15.5654 3.56534 15.8836 3.48894 16.1753 3.48894H16.5731C16.8648 3.48894 17.1299 3.59081 17.3686 3.74361C17.7663 3.94734 18.058 4.27841 18.2437 4.66041C18.3497 4.86414 18.3762 5.09334 18.4028 5.32254C18.4293 5.60268 18.3762 5.90828 18.2967 6.18841C17.9785 7.00334 17.3951 7.53815 16.5201 7.76735C16.3875 7.79281 16.2814 7.81828 16.1488 7.84375C15.5389 7.92015 14.9025 7.84375 14.3191 7.58908C14.1335 7.51268 13.9479 7.38535 13.7888 7.25801C13.3911 6.92694 13.0728 6.51948 12.8342 6.03561C12.7016 5.75548 12.6221 5.47534 12.569 5.16974C12.463 4.66041 12.5425 4.17654 12.6221 3.69267C12.6751 3.43801 12.7812 3.20881 12.9137 2.9796C13.0463 2.08827 13.6297 1.62987 14.3191 1.27334C14.3457 1.27334 14.3722 1.24787 14.3987 1.24787C14.8495 1.0696 15.3533 0.942268 15.8306 0.865868C15.9897 0.840401 16.1488 0.865868 16.3079 0.840401C16.7587 0.814935 17.236 0.840401 17.6868 0.916801C18.4558 1.04413 19.1983 1.34974 19.8081 1.80814C20.2059 2.08827 20.5506 2.4448 20.8423 2.80134C20.8688 2.8268 20.8953 2.85227 20.9219 2.9032C20.9749 2.95414 21.0279 3.00507 21.0544 3.00507C21.134 2.9796 21.1075 2.9032 21.1075 2.85227C21.2401 2.24107 21.5583 1.65534 22.0091 1.19694C22.3803 0.814935 22.8046 0.509334 23.3084 0.280134C23.4675 0.203734 23.6796 0.178267 23.8387 0.101867C24.1304 0.0509334 24.5016 0 24.9524 0C25.3502 0 25.6949 0.0509334 25.9866 0.101867ZM35.0289 28.8028C34.9228 28.8028 34.8433 28.7774 34.7372 28.8028C34.6576 28.8028 34.5516 28.8283 34.472 28.8538V28.8792V28.9047C34.5516 28.9047 34.6046 28.9047 34.6842 28.9302C35.1615 29.0066 35.6122 29.2612 35.6653 29.847C35.6653 30.0507 35.6388 30.2544 35.5327 30.4072C35.4531 30.5855 35.3206 30.7128 35.1615 30.7892C35.0289 30.8402 34.8963 30.8911 34.7372 30.9166C34.4985 30.9675 34.2334 30.9166 34.0477 30.7638C33.9152 30.6874 33.8356 30.56 33.8356 30.4072C33.8356 30.2035 33.8886 29.9998 33.9682 29.796C33.9947 29.7451 34.0212 29.6942 34.0743 29.6687C34.1273 29.6432 34.1803 29.6178 34.2334 29.6687C34.2864 29.7196 34.2334 29.7706 34.2068 29.796C34.1803 29.847 34.1538 29.8979 34.1273 29.9488C34.1008 30.0252 34.0743 30.1016 34.0743 30.178C34.0477 30.3308 34.1538 30.4582 34.3129 30.4582C34.3394 30.4582 34.3394 30.4582 34.3659 30.4582C34.5781 30.4582 34.7902 30.4327 35.0024 30.3308C35.0819 30.3054 35.1615 30.2544 35.2145 30.178C35.3206 30.1016 35.3471 29.9743 35.294 29.8724C35.2675 29.8215 35.241 29.7451 35.188 29.6942C35.0819 29.5414 34.8963 29.4395 34.7107 29.3886C34.3925 29.2867 34.0212 29.2867 33.703 29.3886C33.3053 29.4904 33.0136 29.7706 32.9075 30.1271C32.7749 30.4836 32.881 30.8656 33.1462 31.1203C33.3318 31.2986 33.597 31.4259 33.8621 31.4768C34.4985 31.6042 35.1615 31.4768 35.6918 31.0948C35.9835 30.8911 36.2221 30.6364 36.3282 30.3054C36.4873 29.9488 36.4343 29.5668 36.1956 29.2612C35.9835 28.9811 35.6653 28.8028 35.294 28.7774C35.2675 28.8283 35.1349 28.8283 35.0289 28.8028ZM20.1794 49.5837C20.1794 49.9402 20.2059 50.2967 20.2589 50.6533C20.2855 50.8061 20.3385 50.9334 20.3915 51.0862C20.3915 51.1117 20.418 51.1371 20.418 51.1371C20.4446 51.1371 20.4711 51.1117 20.4711 51.0862C20.4711 50.857 20.4446 50.6533 20.4446 50.4495C20.4446 50.1439 20.4711 49.8383 20.4976 49.5327C20.6567 48.5905 21.0544 47.6737 21.6643 46.9351C21.8234 46.7314 22.0091 46.5277 22.1947 46.3239C22.2212 46.2985 22.2212 46.2475 22.1947 46.2221C22.1947 46.2221 22.1682 46.2221 22.1682 46.1966C21.9825 46.1457 21.7969 46.1966 21.6643 46.3494C21.4257 46.6041 21.2135 46.8587 20.9749 47.1134C20.6567 47.4954 20.418 47.9283 20.312 48.3867C20.2324 48.7687 20.1794 49.1762 20.1794 49.5837ZM3.20855 25.976C3.20855 25.8742 3.18203 25.7468 3.18203 25.645C3.18203 25.4922 3.07596 25.3394 2.91686 25.263C2.70473 25.1356 2.43956 25.0847 2.20091 25.1356C2.01529 25.1611 1.8827 25.3139 1.90922 25.4922C1.90922 25.5686 1.90922 25.645 1.90922 25.7214C1.90922 25.8487 1.96225 25.9506 2.06832 26.0524C2.14787 26.1543 2.30697 26.1543 2.41304 26.0779C2.49259 26.027 2.54563 25.976 2.65169 25.9506C2.67821 25.9506 2.73124 25.9506 2.73124 26.0015C2.75776 26.1034 2.73124 26.2052 2.65169 26.2562C2.49259 26.4344 2.22742 26.5363 1.96225 26.5108C1.75012 26.4854 1.5645 26.358 1.45843 26.1543C1.37888 26.027 1.32585 25.8742 1.32585 25.6959C1.32585 25.6704 1.32585 25.6704 1.32585 25.645V25.6959V25.8996C1.32585 26.1543 1.43191 26.3835 1.59102 26.5618C1.93574 26.9438 2.46607 26.9692 2.83731 26.8674C2.94338 26.8419 3.04945 26.7655 3.07596 26.6382C3.18203 26.4344 3.20855 26.2052 3.20855 25.976ZM22.672 46.7569C22.6455 46.7569 22.6455 46.7569 22.6189 46.7823C22.5129 46.8587 22.4068 46.9606 22.3273 47.0625C22.0091 47.4699 21.7704 47.9029 21.5583 48.3613C21.3461 48.8197 21.2135 49.329 21.2135 49.8383C21.2135 50.0675 21.2135 50.2967 21.2401 50.5514C21.2666 50.9589 21.3196 51.3663 21.3992 51.7483C21.4257 51.8502 21.4522 51.9521 21.5052 52.0285C21.5052 52.054 21.5318 52.0539 21.5318 52.0539C21.5583 52.0539 21.5583 52.0285 21.5583 52.003C21.5583 51.8502 21.5583 51.6719 21.5318 51.5191C21.5052 51.3663 21.4787 51.2135 21.4787 51.0353V50.5769C21.4522 49.711 21.6378 48.8706 22.0621 48.1066C22.2477 47.7755 22.4333 47.419 22.5924 47.0879C22.6455 46.9861 22.672 46.8842 22.6985 46.8078C22.725 46.7823 22.6985 46.7823 22.672 46.7569ZM45.1053 41.5871C45.1053 41.5362 45.1053 41.5362 45.1318 41.5107C45.1318 41.4853 45.1318 41.4343 45.1053 41.4089C45.0788 41.4089 45.0258 41.4089 44.9992 41.4343C44.8932 41.5107 44.8136 41.6126 44.7606 41.7145C44.7341 41.7654 44.7341 41.8163 44.7341 41.8673C44.7606 41.9946 44.8401 42.0965 44.9462 42.1474C45.1053 42.2238 45.2909 42.2493 45.45 42.2238C45.5296 42.2238 45.6356 42.1983 45.6622 42.0965C45.6887 41.9946 45.6091 41.9182 45.5561 41.8418C45.5296 41.8163 45.4765 41.7909 45.4235 41.8163C45.397 41.8163 45.344 41.8418 45.3174 41.8418C45.2114 41.8418 45.1318 41.7654 45.1053 41.6635C45.1053 41.6381 45.1053 41.6126 45.1053 41.5871ZM17.9785 40.2374L17.7398 40.2629C17.7398 40.2629 17.7133 40.2883 17.7133 40.3138C17.8459 40.4921 18.0845 40.5685 18.2967 40.4666C18.3497 40.4411 18.3497 40.3902 18.3232 40.3393C18.2967 40.2883 18.2437 40.2629 18.1906 40.2374H17.9785Z" fill="white"/>
<path d="M79.9222 12.3005H70.323V15.9422H79.1797V21.7486H70.323V25.8997H80.2669V31.9608H63.4021V6.51953H79.9222V12.3005Z" fill="white"/>
<path d="M90.582 5.37305V24.8551C90.582 27.2235 91.8283 27.6819 93.764 27.4017L93.9497 32.0112C88.275 33.0044 84.2179 31.6547 84.2179 24.8805V5.37305H90.582Z" fill="white"/>
<path d="M111.53 24.1422C111.53 25.8739 113.599 26.7653 115.72 26.7653C117.682 26.7653 119.777 25.8994 119.777 24.3714C119.777 21.9266 116.834 21.8247 114.898 21.7229C110.045 21.4427 105.219 19.5837 105.219 14.2866C105.219 8.76032 110.098 5.95898 115.508 5.95898C120.626 5.95898 125.797 8.76032 125.69 14.2866H119.22C119.194 12.5549 117.47 11.8163 115.614 11.8163C114.076 11.8163 112.008 12.2238 112.008 14.1338C112.008 15.8401 113.519 16.2475 116.065 16.5022C121.713 16.9861 126.619 18.2339 126.619 24.4223C126.619 29.7704 121.209 32.5717 115.8 32.5717C110.205 32.5717 104.822 29.8722 104.954 24.1677H111.53V24.1422Z" fill="white"/>
<path d="M142.131 21.2643C141.627 19.9146 140.434 19.2779 139.188 19.2779C137.437 19.3034 135.634 20.5767 135.634 23.1234C135.634 25.6701 137.411 26.9689 139.108 27.0198C140.407 27.0453 141.68 26.3322 142.131 24.8042H148.256C147.62 29.8211 143.271 32.3169 138.869 32.3169C134.017 32.3169 129.191 29.3118 129.191 23.1234C129.191 16.9859 134.176 13.8535 138.922 13.8535C143.271 13.8535 147.54 16.2983 148.23 21.2643H142.131V21.2643Z" fill="white"/>
<path d="M154.78 6.26465C156.636 6.26465 158.518 7.43612 158.518 9.75359C158.518 12.122 156.636 13.268 154.78 13.268C152.923 13.268 151.067 12.0965 151.067 9.75359C151.067 7.41065 152.923 6.26465 154.78 6.26465ZM157.988 31.9351H151.544L151.571 14.6687H157.962V31.9351H157.988Z" fill="white"/>
<path d="M179.52 20.0674C179.414 23.7091 176.152 25.339 172.811 25.5173C171.008 25.6191 169.178 25.2881 167.693 24.6005C168.117 26.9179 170.265 27.6565 172.837 27.5546C174.985 27.4527 177.478 26.8161 178.777 26.1794L179.042 30.7889C176.974 31.9603 174.853 32.215 172.413 32.3169C166.129 32.597 161.674 29.8211 161.488 23.5563C161.303 17.2406 166.023 14.1082 170.716 13.9299C174.985 13.8026 179.626 15.3815 179.52 20.0674ZM171.538 21.7991C172.44 21.7736 173.394 21.137 173.341 20.1692C173.341 18.9214 171.83 18.6922 170.849 18.6922C169.629 18.794 168.436 19.4307 167.985 21.1879C168.886 21.5954 170.318 21.9265 171.538 21.7991Z" fill="white"/>
<path d="M190.259 31.9351H183.789V19.7621C183.789 18.2341 183.763 17.6229 181.933 17.7247V14.3631C184.532 13.7774 190.021 13.1153 190.021 17.0626C191.108 15.1781 193.017 14.0575 195.271 14.0575C200.574 14.0575 202.51 17.4446 202.377 21.9013V26.6126C202.377 27.9623 202.616 28.6499 204.128 28.6499V31.8078C200.389 32.801 195.96 32.5718 195.96 27.7841V21.8758C195.987 19.8894 194.661 18.8962 193.282 18.8962C191.797 18.7943 190.259 19.9913 190.259 21.9777V31.9351Z" fill="white"/>
<path d="M214.92 14.4395H220.489V18.7943H214.92V24.9064C214.92 28.1152 218.447 27.886 220.78 27.0965L221.311 31.706C215.026 33.3868 208.609 32.47 208.609 25.0592V18.7943L205.4 18.3869V14.4395H208.609L209.325 9.01514H214.92V14.4395V14.4395Z" fill="white"/>
<path d="M227.675 6.26465C229.531 6.26465 231.413 7.43612 231.413 9.75359C231.413 12.122 229.531 13.268 227.675 13.268C225.818 13.268 223.962 12.0965 223.962 9.75359C223.962 7.41065 225.818 6.26465 227.675 6.26465ZM230.883 31.9351H224.439L224.466 14.6687H230.857V31.9351H230.883Z" fill="white"/>
<path d="M237.194 18.7943H234.092V14.4394H237.274L237.3 12.5804C237.3 4.9913 243.585 4.3801 249.816 5.93357L249.206 10.5176C246.926 9.85544 243.638 9.42251 243.638 12.7332V14.4394H248.941V18.7943H243.638V31.9351H237.168V18.7943H237.194Z" fill="white"/>
<path d="M254.907 6.26465C256.764 6.26465 258.646 7.43612 258.646 9.75359C258.646 12.122 256.764 13.268 254.907 13.268C253.051 13.268 251.195 12.0965 251.195 9.75359C251.195 7.41065 253.051 6.26465 254.907 6.26465ZM258.116 31.9351H251.699L251.725 14.6687H258.116V31.9351Z" fill="white"/>
<path d="M274.53 21.2643C274.026 19.9146 272.833 19.2779 271.587 19.2779C269.837 19.3034 268.033 20.5767 268.033 23.1234C268.033 25.6701 269.81 26.9689 271.507 27.0198C272.807 27.0453 274.079 26.3322 274.53 24.8042H280.656C280.019 29.8211 275.67 32.3169 271.269 32.3169C266.416 32.3169 261.59 29.3118 261.59 23.1234C261.59 16.9859 266.575 13.8535 271.322 13.8535C275.67 13.8535 279.94 16.2983 280.629 21.2643H274.53V21.2643Z" fill="white"/>
<path d="M71.8874 52.9199V53.0982H70.4555L67.2999 49.0744H64.33V53.0982H62.9512V42.1475H67.4856C69.819 42.1475 71.3835 43.6755 71.3835 45.6619C71.3835 47.3427 70.2698 48.5396 68.6788 48.9216L71.8874 52.9199ZM67.4856 48.0048C68.944 48.0048 70.0577 47.0625 70.0577 45.6364C70.0577 44.2357 68.9705 43.2935 67.4856 43.2935H64.3035V48.0048H67.4856Z" fill="white"/>
<path d="M82.6268 43.3189H77.3764V46.8842H82.4411V48.0302H77.3764V51.9011H82.7859V53.0981H75.9976V42.1729H82.6268V43.3189Z" fill="white"/>
<path d="M87.8242 50.1185C87.9037 51.5956 89.6539 52.1558 91.0593 52.1558C92.4381 52.1049 94.1087 51.6465 94.1617 50.0676C94.1617 48.3104 92.4381 48.2594 90.9002 48.0812C88.8318 47.8774 86.7635 47.3681 86.7635 45.1779C86.7635 43.0133 88.8849 42.0201 90.9002 42.0201C92.8624 41.9691 95.0898 42.8859 95.1694 45.0251H93.8966C93.764 43.6245 92.226 43.1915 90.9267 43.1915C89.6804 43.2425 88.1159 43.7263 88.1159 45.1779C88.1159 46.8078 89.7599 46.8587 91.1388 47.037C93.3927 47.2917 95.5141 47.6737 95.5141 50.093C95.5141 52.436 93.1806 53.2764 91.1123 53.3273C88.9909 53.3782 86.6309 52.4105 86.5514 50.1694H87.8242V50.1185Z" fill="white"/>
<path d="M106.492 43.3189H101.242V46.8842H106.306V48.0302H101.242V51.9011H106.678V53.0981H99.8894V42.1729H106.519V43.3189H106.492Z" fill="white"/>
<path d="M112.617 50.3987L111.292 53.0982H109.886V52.92L115.19 42.1221H115.799L121.05 52.92V53.0982H119.644L118.319 50.3987H112.617ZM113.068 49.2782H117.841L115.455 44.1594L113.068 49.2782Z" fill="white"/>
<path d="M133.752 52.9199V53.0982H132.32L129.164 49.0744H126.194V53.0982H124.815V42.1475H129.35C131.683 42.1475 133.248 43.6755 133.248 45.6619C133.248 47.3427 132.134 48.5396 130.543 48.9216L133.752 52.9199ZM129.376 48.0048C130.835 48.0048 131.948 47.0625 131.948 45.6364C131.948 44.2357 130.861 43.2935 129.376 43.2935H126.194V48.0048H129.376Z" fill="white"/>
<path d="M142.926 42.0458C145.127 42.0458 147.302 43.1918 147.991 45.4583H146.665C145.976 43.9812 144.57 43.2427 142.926 43.2427C140.301 43.1918 138.551 45.0763 138.551 47.623C138.551 50.0932 140.301 52.0032 142.9 52.0032C144.65 52.0032 146.108 51.1628 146.718 49.5839H148.044C147.381 52.0287 145.207 53.2002 142.926 53.2002C139.744 53.2002 137.172 51.0355 137.172 47.5975C137.172 44.2104 139.718 41.9948 142.926 42.0458Z" fill="white"/>
<path d="M159.738 53.0981V47.9793H153.719V53.0981H152.366V42.1729H153.719V46.7823H159.738V42.1729H161.117V53.0981H159.738Z" fill="white"/>
<path d="M170.875 43.3443V42.1729H179.228V43.3443H175.728V53.0981H174.402V43.3443H170.875Z" fill="white"/>
<path d="M187.766 53.2764C184.558 53.2764 182.012 51.1117 182.012 47.6482C182.012 44.1593 184.611 41.9946 187.793 41.9946C190.975 41.9946 193.574 44.1848 193.574 47.6482C193.547 50.9589 191.187 53.2764 187.766 53.2764ZM187.766 52.0794C190.259 52.0794 192.195 50.2968 192.195 47.6482C192.195 44.9997 190.312 43.1916 187.793 43.1916C185.327 43.1916 183.391 44.9742 183.391 47.6482C183.365 50.2968 185.274 52.0794 187.766 52.0794Z" fill="white"/>
<path d="M213.249 52.9199V53.0982H211.817L208.662 49.0744H205.692V53.0982H204.313V42.1475H208.847C211.181 42.1475 212.745 43.6755 212.745 45.6619C212.745 47.3427 211.632 48.5396 210.041 48.9216L213.249 52.9199ZM208.847 48.0048C210.306 48.0048 211.42 47.0625 211.42 45.6364C211.42 44.2357 210.332 43.2935 208.847 43.2935H205.665V48.0048H208.847Z" fill="white"/>
<path d="M223.989 43.3189H218.738V46.8842H223.803V48.0302H218.738V51.9011H224.174V53.0981H217.386V42.1729H224.015V43.3189H223.989Z" fill="white"/>
<path d="M230.114 50.3987L228.788 53.0982H227.383V52.92L232.686 42.1221H233.296L238.546 52.92V53.0982H237.141L235.815 50.3987H230.114ZM230.565 49.2782H235.338L232.951 44.1594L230.565 49.2782Z" fill="white"/>
<path d="M243.691 51.9266H249.047V53.0981H242.312V42.1729H243.691V51.9266V51.9266Z" fill="white"/>
<path d="M257.32 52.0539V53.0981H252.017V52.0539H253.979V43.1915H252.15V42.1729H257.188V43.1915H255.358V52.0539H257.32V52.0539Z" fill="white"/>
<path d="M260.343 43.3443V42.1729H268.696V43.3443H265.196V53.0981H263.87V43.3443H260.343Z" fill="white"/>
<path d="M276.227 47.3936L277.871 44.7451L279.542 42.1729H281V42.3512L276.89 48.616V53.0982H275.511V48.616L271.401 42.3257V42.1475H272.886L274.556 44.6941L276.2 47.3681H276.227V47.3936Z" fill="white"/>
</svg>
