<svg width="33" height="34" viewBox="0 0 33 34" fill="none" xmlns="http://www.w3.org/2000/svg">
<g clip-path="url(#clip0_340_1141)">
<path d="M24.6344 14.3903H32.837L28.7357 8.92188L24.6344 14.3903ZM24.6344 19.8587H32.837L28.7357 25.3271L24.6344 19.8587Z" fill="#D6B1FF"/>
<path d="M1.39373 0.719238H9.59632V33.5296H1.39373C1.03115 33.5296 0.683421 33.3856 0.42704 33.1292C0.170659 32.8728 0.0266266 32.5251 0.0266266 32.1625V2.08634C0.0266266 1.72376 0.170659 1.37603 0.42704 1.11965C0.683421 0.863271 1.03115 0.719238 1.39373 0.719238Z" fill="#8C30F5"/>
<path d="M12.3305 0.719238H20.5331C20.8957 0.719238 21.2434 0.863271 21.4998 1.11965C21.7562 1.37603 21.9002 1.72376 21.9002 2.08634V32.1625C21.9002 32.5251 21.7562 32.8728 21.4998 33.1292C21.2434 33.3856 20.8957 33.5296 20.5331 33.5296H12.3305V0.719238Z" fill="#2EC5CE"/>
</g>
<defs>
<clipPath id="clip0_340_1141">
<rect width="32.8104" height="32.8104" fill="white" transform="translate(0.0266266 0.719238)"/>
</clipPath>
</defs>
</svg>
