<svg width="34" height="34" viewBox="0 0 34 34" fill="none" xmlns="http://www.w3.org/2000/svg">
<path d="M31.7166 8.92192V3.45353C31.7166 3.09095 31.5726 2.74322 31.3162 2.48684C31.0598 2.23046 30.7121 2.08643 30.3495 2.08643H3.00754C2.64496 2.08643 2.29724 2.23046 2.04086 2.48684C1.78447 2.74322 1.64044 3.09095 1.64044 3.45353V8.92192H31.7166Z" fill="#2EC5CE"/>
<path d="M1.64044 11.6562V30.7956C1.64044 31.1582 1.78447 31.506 2.04085 31.7623C2.29724 32.0187 2.64496 32.1627 3.00754 32.1627H9.84304V11.6562H1.64044Z" fill="#D6B1FF"/>
<path d="M12.5773 32.1627H30.3496C30.7121 32.1627 31.0599 32.0187 31.3163 31.7623C31.5726 31.506 31.7167 31.1582 31.7167 30.7956V11.6562H12.5773V32.1627Z" fill="#8C30F5"/>
</svg>
