<svg width="33" height="34" viewBox="0 0 33 34" fill="none" xmlns="http://www.w3.org/2000/svg">
<g clip-path="url(#clip0_344_51)">
<path d="M28.7357 33.7711H16.4318C16.0693 33.7711 15.7215 33.6271 15.4651 33.3707C15.2088 33.1143 15.0647 32.7666 15.0647 32.404V29.6698C15.0647 29.3073 15.2088 28.9595 15.4651 28.7031C15.7215 28.4468 16.0693 28.3027 16.4318 28.3027H28.7357C29.0983 28.3027 29.446 28.4468 29.7024 28.7031C29.9588 28.9595 30.1028 29.3073 30.1028 29.6698V32.404C30.1028 32.7666 29.9588 33.1143 29.7024 33.3707C29.446 33.6271 29.0983 33.7711 28.7357 33.7711Z" fill="#D6B1FF"/>
<path d="M28.7357 0.960938H4.12793C3.76536 0.960938 3.41763 1.10497 3.16125 1.36135C2.90487 1.61773 2.76083 1.96546 2.76083 2.32804V5.06224C2.76083 5.42481 2.90487 5.77254 3.16125 6.02892C3.41763 6.2853 3.76536 6.42934 4.12793 6.42934H28.7357C29.0983 6.42934 29.446 6.2853 29.7024 6.02892C29.9588 5.77254 30.1028 5.42481 30.1028 5.06224V2.32804C30.1028 1.96546 29.9588 1.61773 29.7024 1.36135C29.446 1.10497 29.0983 0.960938 28.7357 0.960938Z" fill="#2EC5CE"/>
<path d="M28.7357 9.16357H4.12793C3.76536 9.16357 3.41763 9.30761 3.16125 9.56399C2.90487 9.82037 2.76083 10.1681 2.76083 10.5307V24.2017C2.76083 24.5642 2.90487 24.912 3.16125 25.1684C3.41763 25.4247 3.76536 25.5688 4.12793 25.5688H28.7357C29.0983 25.5688 29.446 25.4247 29.7024 25.1684C29.9588 24.912 30.1028 24.5642 30.1028 24.2017V10.5307C30.1028 10.1681 29.9588 9.82037 29.7024 9.56399C29.446 9.30761 29.0983 9.16357 28.7357 9.16357Z" fill="#8C30F5"/>
</g>
<defs>
<clipPath id="clip0_344_51">
<rect width="32.8104" height="32.8104" fill="white" transform="translate(0.0266266 0.960938)"/>
</clipPath>
</defs>
</svg>
