<svg width="31" height="31" viewBox="0 0 31 31" fill="none" xmlns="http://www.w3.org/2000/svg">
<path d="M5.48549 0.328125H1.38419C1.02161 0.328125 0.673884 0.472157 0.417503 0.728538C0.161122 0.984919 0.0170898 1.33265 0.0170898 1.69522V29.0372C0.0170898 29.3998 0.161122 29.7475 0.417503 30.0039C0.673884 30.2603 1.02161 30.4043 1.38419 30.4043H5.48549V0.328125Z" fill="#D6B1FF"/>
<path d="M8.21973 30.4043H21.8907V0.328125H8.21973V30.4043ZM15.0552 24.9359C14.6926 24.9359 14.3449 24.7919 14.0885 24.5355C13.8322 24.2791 13.6881 23.9314 13.6881 23.5688C13.6881 23.2062 13.8322 22.8585 14.0885 22.6021C14.3449 22.3457 14.6926 22.2017 15.0552 22.2017C15.4178 22.2017 15.7655 22.3457 16.0219 22.6021C16.2783 22.8585 16.4223 23.2062 16.4223 23.5688C16.4223 23.9314 16.2783 24.2791 16.0219 24.5355C15.7655 24.7919 15.4178 24.9359 15.0552 24.9359ZM15.0552 5.79652C15.4178 5.79652 15.7655 5.94056 16.0219 6.19694C16.2783 6.45332 16.4223 6.80105 16.4223 7.16362C16.4223 7.5262 16.2783 7.87393 16.0219 8.13031C15.7655 8.38669 15.4178 8.53072 15.0552 8.53072C14.6926 8.53072 14.3449 8.38669 14.0885 8.13031C13.8322 7.87393 13.6881 7.5262 13.6881 7.16362C13.6881 6.80105 13.8322 6.45332 14.0885 6.19694C14.3449 5.94056 14.6926 5.79652 15.0552 5.79652ZM15.0552 13.9991C15.4178 13.9991 15.7655 14.1432 16.0219 14.3995C16.2783 14.6559 16.4223 15.0036 16.4223 15.3662C16.4223 15.7288 16.2783 16.0765 16.0219 16.3329C15.7655 16.5893 15.4178 16.7333 15.0552 16.7333C14.6926 16.7333 14.3449 16.5893 14.0885 16.3329C13.8322 16.0765 13.6881 15.7288 13.6881 15.3662C13.6881 15.0036 13.8322 14.6559 14.0885 14.3995C14.3449 14.1432 14.6926 13.9991 15.0552 13.9991Z" fill="#8C30F5"/>
<path d="M28.7262 0.328125H24.6249V30.4043H28.7262C29.0888 30.4043 29.4365 30.2603 29.6929 30.0039C29.9493 29.7475 30.0933 29.3998 30.0933 29.0372V1.69522C30.0933 1.33265 29.9493 0.984919 29.6929 0.728538C29.4365 0.472157 29.0888 0.328125 28.7262 0.328125Z" fill="#2EC5CE"/>
</svg>
