<svg width="33" height="34" viewBox="0 0 33 34" fill="none" xmlns="http://www.w3.org/2000/svg">
<path d="M15.8665 1.14132L1.07452 8.05201C0.974493 8.09789 0.889752 8.17154 0.830389 8.2642C0.771025 8.35686 0.739542 8.46463 0.739686 8.57468C0.73983 8.68473 0.771594 8.79242 0.8312 8.88493C0.890805 8.97744 0.97574 9.05087 1.07589 9.09648L15.9841 15.9566C16.4243 16.1589 16.9329 16.1589 17.3731 15.9566L32.2813 9.09648C32.3815 9.051 32.4665 8.97768 32.5263 8.88525C32.586 8.79282 32.6179 8.68517 32.6182 8.57512C32.6185 8.46508 32.5871 8.35726 32.5279 8.26452C32.4687 8.17178 32.384 8.09802 32.284 8.05201L17.4907 1.14132C17.2364 1.02251 16.9592 0.960938 16.6786 0.960938C16.398 0.960938 16.1208 1.02251 15.8665 1.14132V1.14132Z" fill="#8C30F5"/>
<path opacity="0.64" d="M32.2841 16.9229L29.2286 15.4956C29.0098 15.3934 28.7713 15.3401 28.5298 15.3394C28.2882 15.3387 28.0495 15.3906 27.83 15.4915L17.3731 20.3037C17.1553 20.4039 16.9184 20.4557 16.6786 20.4557C16.4389 20.4557 16.202 20.4039 15.9841 20.3037L5.52581 15.4915C5.30658 15.3908 5.06805 15.339 4.82678 15.3397C4.5855 15.3404 4.34728 15.3936 4.12864 15.4956L1.07317 16.9229C0.973199 16.9689 0.888554 17.0427 0.829312 17.1354C0.77007 17.2281 0.738728 17.336 0.739016 17.446C0.739304 17.556 0.771209 17.6637 0.830936 17.7561C0.890664 17.8486 0.975695 17.9219 1.07591 17.9674L15.9841 24.8261C16.2018 24.9268 16.4388 24.9789 16.6786 24.9789C16.9185 24.9789 17.1554 24.9268 17.3731 24.8261L32.2813 17.9674C32.3815 17.9219 32.4666 17.8486 32.5263 17.7561C32.586 17.6637 32.6179 17.556 32.6182 17.446C32.6185 17.336 32.5872 17.2281 32.5279 17.1354C32.4687 17.0427 32.384 16.9689 32.2841 16.9229Z" fill="#D6B1FF"/>
<path d="M32.284 25.7164L29.2286 24.2892C29.0097 24.1869 28.7713 24.1336 28.5297 24.1329C28.2882 24.1322 28.0494 24.1841 27.83 24.2851L17.3731 29.0959C17.1553 29.1961 16.9183 29.2479 16.6786 29.2479C16.4388 29.2479 16.2019 29.1961 15.9841 29.0959L5.52579 24.2837C5.30656 24.183 5.06802 24.1311 4.82675 24.1318C4.58548 24.1326 4.34725 24.1858 4.12862 24.2878L1.07315 25.7164C0.97356 25.7626 0.889296 25.8363 0.830336 25.9289C0.771376 26.0215 0.740193 26.1291 0.74048 26.2388C0.740768 26.3486 0.772516 26.456 0.831961 26.5483C0.891405 26.6406 0.976055 26.7139 1.07588 26.7595L15.9841 33.6196C16.4243 33.822 16.9329 33.822 17.3731 33.6196L32.2813 26.7595C32.3811 26.7139 32.4658 26.6406 32.5252 26.5483C32.5847 26.456 32.6164 26.3486 32.6167 26.2388C32.617 26.1291 32.5858 26.0215 32.5268 25.9289C32.4679 25.8363 32.3836 25.7626 32.284 25.7164Z" fill="#2EC5CE"/>
</svg>
